<?xml version="1.0" encoding="UTF-8"?>
<svg xmlns="http://www.w3.org/2000/svg" version="1.1" viewBox="0 0 303.5 97.6">
  <defs>
    <style>
      .cls-1, .cls-2 {
        fill: #f0bf5e;
      }

      .cls-3 {
        fill: #b38524;
      }

      .cls-4, .cls-5, .cls-6, .cls-7, .cls-2, .cls-8, .cls-9 {
        stroke-miterlimit: 10;
      }

      .cls-4, .cls-7, .cls-9 {
        fill: none;
      }

      .cls-4, .cls-8 {
        stroke: #4b5636;
      }

      .cls-10 {
        isolation: isolate;
      }

      .cls-11 {
        fill: #243d1e;
      }

      .cls-5 {
        fill: #eeb033;
        stroke: #e7b463;
      }

      .cls-12 {
        fill: #e5ab39;
      }

      .cls-13, .cls-8 {
        fill: #4b5636;
      }

      .cls-6 {
        fill: #e7b463;
        stroke: #eca740;
      }

      .cls-7, .cls-2 {
        stroke: #f0bf5e;
      }

      .cls-14 {
        fill: #1b3017;
      }

      .cls-15 {
        fill: #f1c05f;
      }

      .cls-9 {
        stroke: #1b3017;
      }
    </style>
  </defs>
  <!-- Generator: Adobe Illustrator 28.7.1, SVG Export Plug-In . SVG Version: 1.2.0 Build 142)  -->
  <g>
    <g id="_レイヤー_1" data-name="レイヤー_1">
      <g class="cls-10">
        <g class="cls-10">
          <path class="cls-14" d="M126.4,50.7c-.6.8-1.2,1.8-1.9,2.9-.7,1.1-1.4,2.4-2.2,3.8-.7,1.2-1.3,2.4-2,3.8s-1.3,2.7-1.8,4-1.1,2.6-1.6,3.8c-.5,1.2-.9,2.3-1.3,3.2-.4.9-.7,1.7-.9,2.2-.2.6-.3.8-.3.8-.1.3-.4.5-.7.5s-.3,0-.4-.2c-.1-.1-.2-.3-.3-.4,0,0,0-.3-.2-.8-.1-.5-.3-1.3-.5-2.2-.2-.9-.4-1.9-.7-3.1-.3-1.2-.5-2.4-.8-3.7s-.6-2.6-.9-3.9c-.3-1.3-.6-2.6-.8-3.8-.9,2.5-1.7,4.6-2.6,6.5s-1.8,3.5-2.7,4.9c-.9,1.4-1.9,2.6-2.9,3.5-1,1-2,1.7-3.1,2.3s-2.2,1-3.4,1.2c-1.2.2-2.4.4-3.7.4s-1.4,0-2.2-.2c-.8-.1-1.5-.4-2.3-.7-.8-.3-1.5-.7-2.2-1.2-.7-.5-1.3-1-1.8-1.7-.5-.6-1-1.4-1.3-2.2s-.5-1.7-.5-2.7.2-2,.7-2.9c.4-.9,1-1.6,1.8-2.3.8-.6,1.6-1.1,2.6-1.5s2-.5,3.2-.5,1.5,0,2.2.2,1.2.3,1.7.5c.5.2.9.4,1.3.7s.6.5.9.7.4.4.5.5c.1.1.2.2.2.2,0,.1.1.3.1.4s0,.4-.2.5-.3.2-.5.2-.5-.1-.6-.3c0,0-.1-.1-.3-.4s-.5-.5-1-.8c-.4-.3-1-.5-1.7-.7-.7-.2-1.5-.3-2.5-.3s-1.8.1-2.6.4c-.8.3-1.5.7-2.1,1.2s-1.1,1.1-1.4,1.8c-.4.7-.5,1.5-.5,2.3s.1,1.6.4,2.2.6,1.3,1.1,1.8c.5.5,1,1,1.6,1.4.6.4,1.2.7,1.9,1,.7.3,1.3.4,2,.6.7.1,1.3.2,1.9.2,1,0,2,0,2.9-.2.9-.1,1.9-.4,2.8-.8s1.8-1,2.7-1.7c.9-.7,1.8-1.7,2.6-2.9.9-1.2,1.7-2.6,2.6-4.2.9-1.7,1.7-3.6,2.6-5.9.3-.7.5-1.4.8-2.2.2-.8.5-1.6.8-2.4-.2-1.1-.4-2.1-.5-2.9s-.1-1.5-.1-2,0-1,.1-1.4c0-.3.2-.6.4-.8.1-.2.3-.3.5-.3.2,0,.3,0,.5,0s.3,0,.4,0c.2,0,.3.2.4.3s.3.4.3.8c0,.3.1.8.1,1.4s0,1.3-.2,2.2-.3,1.7-.5,2.7c.2.8.4,1.7.6,2.7.2,1,.4,2,.7,3s.5,2.1.7,3.2c.2,1.1.5,2.2.7,3.2s.5,2,.7,3,.4,1.8.6,2.6c.4-.9.8-2,1.3-3.2s1.1-2.6,1.7-4,1.3-2.9,2-4.3c.7-1.5,1.4-2.8,2.1-4.2,1-1.8,2-3.4,2.8-4.8s1.6-2.4,2.2-3.3,1.1-1.5,1.5-1.9c.4-.4.5-.6.6-.7.1-.1.3-.2.5-.2s.4,0,.5.2.2.3.2.5,0,.2,0,.3c0,0,0,.2-.2.6-.1.4-.3.9-.6,1.5-.2.6-.5,1.4-.8,2.3s-.5,1.8-.8,2.8c-.3,1-.5,2-.7,3.1-.2,1.1-.3,2.2-.4,3.3,0,.5,0,1,0,1.6,0,.5,0,1.1,0,1.6,0,.9,0,1.7.1,2.6s.2,1.7.4,2.5c.2.8.4,1.6.7,2.3s.7,1.3,1.2,1.9c.5.5,1,1,1.6,1.3.6.3,1.4.5,2.2.5.2,0,.4.1.5.3.1.2.2.3.2.5s0,.3-.2.5c-.1.1-.3.2-.5.2s-.4,0-.6,0c-.9-.1-1.8-.4-2.5-.8-.7-.4-1.3-.9-1.9-1.5-.5-.6-1-1.3-1.3-2.1-.3-.8-.6-1.6-.8-2.5-.2-.9-.4-1.8-.4-2.8,0-1-.1-1.9-.1-2.9s0-2.3.2-3.5.3-2.3.5-3.4.4-2.2.7-3.2c.3-1,.5-2,.8-2.9Z"/>
          <path class="cls-14" d="M137,60.5c0,.5-.2.9-.5,1.3-.3.3-.8.5-1.3.5s-.9-.2-1.3-.5c-.3-.3-.5-.8-.5-1.3s0-.5.1-.7c0-.2.2-.4.4-.6.2-.2.4-.3.6-.4s.4-.1.7-.1.5,0,.7.1.4.2.6.4c.2.2.3.4.4.6,0,.2.1.4.1.7ZM133.8,72c0-1.9.1-3.7.4-5.6,0-.2.1-.3.2-.5s.3-.2.5-.2.4,0,.5.2c.1.1.2.3.2.5s0,.3,0,.7c0,.4,0,.9-.1,1.4,0,.5,0,1.1-.1,1.7,0,.6,0,1.2,0,1.7s0,1.2.2,1.7.3.8.5,1,.4.4.7.5c.2,0,.5.1.7.1.4,0,.7-.1,1.1-.4s.8-.6,1.2-1.1.8-1,1.2-1.7c.4-.7.8-1.4,1.2-2.2s.2-.2.3-.3.2-.1.4-.1c.2,0,.4,0,.5.2s.2.3.2.5,0,.2,0,.3c-.2.3-.4.7-.6,1.1s-.5.9-.8,1.3c-.3.5-.6.9-1,1.4-.4.4-.7.9-1.1,1.2-.4.4-.8.6-1.3.9-.4.2-.9.3-1.3.3s-1.1-.1-1.5-.4c-.4-.2-.8-.6-1.1-1-.3-.4-.5-.9-.7-1.5-.1-.6-.2-1.2-.2-1.8ZM135.9,60.5c0-.2,0-.3-.2-.5s-.3-.2-.5-.2-.3,0-.5.2c-.1.1-.2.3-.2.5s0,.3.2.5c.1.1.3.2.5.2s.3,0,.5-.2.2-.3.2-.5Z"/>
          <path class="cls-14" d="M145.4,60.5c0,.5-.2.9-.5,1.3-.3.3-.8.5-1.3.5s-.9-.2-1.3-.5c-.3-.3-.5-.8-.5-1.3s0-.5.1-.7c0-.2.2-.4.4-.6.2-.2.4-.3.6-.4s.4-.1.7-.1.5,0,.7.1.4.2.6.4c.2.2.3.4.4.6,0,.2.1.4.1.7ZM142.2,72c0-1.9.1-3.7.4-5.6,0-.2.1-.3.2-.5s.3-.2.5-.2.4,0,.5.2c.1.1.2.3.2.5s0,.3,0,.7c0,.4,0,.9-.1,1.4,0,.5,0,1.1-.1,1.7,0,.6,0,1.2,0,1.7s0,1.2.2,1.7.3.8.5,1,.4.4.7.5c.2,0,.5.1.7.1.4,0,.7-.1,1.1-.4s.8-.6,1.2-1.1.8-1,1.2-1.7c.4-.7.8-1.4,1.2-2.2s.2-.2.3-.3.2-.1.4-.1c.2,0,.4,0,.5.2s.2.3.2.5,0,.2,0,.3c-.2.3-.4.7-.6,1.1s-.5.9-.8,1.3c-.3.5-.6.9-1,1.4-.4.4-.7.9-1.1,1.2-.4.4-.8.6-1.3.9-.4.2-.9.3-1.3.3s-1.1-.1-1.5-.4c-.4-.2-.8-.6-1.1-1-.3-.4-.5-.9-.7-1.5-.1-.6-.2-1.2-.2-1.8ZM144.3,60.5c0-.2,0-.3-.2-.5s-.3-.2-.5-.2-.3,0-.5.2c-.1.1-.2.3-.2.5s0,.3.2.5c.1.1.3.2.5.2s.3,0,.5-.2.2-.3.2-.5Z"/>
        </g>
        <g class="cls-10">
          <path class="cls-9" d="M126.4,50.7c-.6.8-1.2,1.8-1.9,2.9-.7,1.1-1.4,2.4-2.2,3.8-.7,1.2-1.3,2.4-2,3.8s-1.3,2.7-1.8,4-1.1,2.6-1.6,3.8c-.5,1.2-.9,2.3-1.3,3.2-.4.9-.7,1.7-.9,2.2-.2.6-.3.8-.3.8-.1.3-.4.5-.7.5s-.3,0-.4-.2c-.1-.1-.2-.3-.3-.4,0,0,0-.3-.2-.8-.1-.5-.3-1.3-.5-2.2-.2-.9-.4-1.9-.7-3.1-.3-1.2-.5-2.4-.8-3.7s-.6-2.6-.9-3.9c-.3-1.3-.6-2.6-.8-3.8-.9,2.5-1.7,4.6-2.6,6.5s-1.8,3.5-2.7,4.9c-.9,1.4-1.9,2.6-2.9,3.5-1,1-2,1.7-3.1,2.3s-2.2,1-3.4,1.2c-1.2.2-2.4.4-3.7.4s-1.4,0-2.2-.2c-.8-.1-1.5-.4-2.3-.7-.8-.3-1.5-.7-2.2-1.2-.7-.5-1.3-1-1.8-1.7-.5-.6-1-1.4-1.3-2.2s-.5-1.7-.5-2.7.2-2,.7-2.9c.4-.9,1-1.6,1.8-2.3.8-.6,1.6-1.1,2.6-1.5s2-.5,3.2-.5,1.5,0,2.2.2,1.2.3,1.7.5c.5.2.9.4,1.3.7s.6.5.9.7.4.4.5.5c.1.1.2.2.2.2,0,.1.1.3.1.4s0,.4-.2.5-.3.2-.5.2-.5-.1-.6-.3c0,0-.1-.1-.3-.4s-.5-.5-1-.8c-.4-.3-1-.5-1.7-.7-.7-.2-1.5-.3-2.5-.3s-1.8.1-2.6.4c-.8.3-1.5.7-2.1,1.2s-1.1,1.1-1.4,1.8c-.4.7-.5,1.5-.5,2.3s.1,1.6.4,2.2.6,1.3,1.1,1.8c.5.5,1,1,1.6,1.4.6.4,1.2.7,1.9,1,.7.3,1.3.4,2,.6.7.1,1.3.2,1.9.2,1,0,2,0,2.9-.2.9-.1,1.9-.4,2.8-.8s1.8-1,2.7-1.7c.9-.7,1.8-1.7,2.6-2.9.9-1.2,1.7-2.6,2.6-4.2.9-1.7,1.7-3.6,2.6-5.9.3-.7.5-1.4.8-2.2.2-.8.5-1.6.8-2.4-.2-1.1-.4-2.1-.5-2.9s-.1-1.5-.1-2,0-1,.1-1.4c0-.3.2-.6.4-.8.1-.2.3-.3.5-.3.2,0,.3,0,.5,0s.3,0,.4,0c.2,0,.3.2.4.3s.3.4.3.8c0,.3.1.8.1,1.4s0,1.3-.2,2.2-.3,1.7-.5,2.7c.2.8.4,1.7.6,2.7.2,1,.4,2,.7,3s.5,2.1.7,3.2c.2,1.1.5,2.2.7,3.2s.5,2,.7,3,.4,1.8.6,2.6c.4-.9.8-2,1.3-3.2s1.1-2.6,1.7-4,1.3-2.9,2-4.3c.7-1.5,1.4-2.8,2.1-4.2,1-1.8,2-3.4,2.8-4.8s1.6-2.4,2.2-3.3,1.1-1.5,1.5-1.9c.4-.4.5-.6.6-.7.1-.1.3-.2.5-.2s.4,0,.5.2.2.3.2.5,0,.2,0,.3c0,0,0,.2-.2.6-.1.4-.3.9-.6,1.5-.2.6-.5,1.4-.8,2.3s-.5,1.8-.8,2.8c-.3,1-.5,2-.7,3.1-.2,1.1-.3,2.2-.4,3.3,0,.5,0,1,0,1.6,0,.5,0,1.1,0,1.6,0,.9,0,1.7.1,2.6s.2,1.7.4,2.5c.2.8.4,1.6.7,2.3s.7,1.3,1.2,1.9c.5.5,1,1,1.6,1.3.6.3,1.4.5,2.2.5.2,0,.4.1.5.3.1.2.2.3.2.5s0,.3-.2.5c-.1.1-.3.2-.5.2s-.4,0-.6,0c-.9-.1-1.8-.4-2.5-.8-.7-.4-1.3-.9-1.9-1.5-.5-.6-1-1.3-1.3-2.1-.3-.8-.6-1.6-.8-2.5-.2-.9-.4-1.8-.4-2.8,0-1-.1-1.9-.1-2.9s0-2.3.2-3.5.3-2.3.5-3.4.4-2.2.7-3.2c.3-1,.5-2,.8-2.9Z"/>
          <path class="cls-9" d="M137,60.5c0,.5-.2.9-.5,1.3-.3.3-.8.5-1.3.5s-.9-.2-1.3-.5c-.3-.3-.5-.8-.5-1.3s0-.5.1-.7c0-.2.2-.4.4-.6.2-.2.4-.3.6-.4s.4-.1.7-.1.5,0,.7.1.4.2.6.4c.2.2.3.4.4.6,0,.2.1.4.1.7ZM133.8,72c0-1.9.1-3.7.4-5.6,0-.2.1-.3.2-.5s.3-.2.5-.2.4,0,.5.2c.1.1.2.3.2.5s0,.3,0,.7c0,.4,0,.9-.1,1.4,0,.5,0,1.1-.1,1.7,0,.6,0,1.2,0,1.7s0,1.2.2,1.7.3.8.5,1,.4.4.7.5c.2,0,.5.1.7.1.4,0,.7-.1,1.1-.4s.8-.6,1.2-1.1.8-1,1.2-1.7c.4-.7.8-1.4,1.2-2.2s.2-.2.3-.3.2-.1.4-.1c.2,0,.4,0,.5.2s.2.3.2.5,0,.2,0,.3c-.2.3-.4.7-.6,1.1s-.5.9-.8,1.3c-.3.5-.6.9-1,1.4-.4.4-.7.9-1.1,1.2-.4.4-.8.6-1.3.9-.4.2-.9.3-1.3.3s-1.1-.1-1.5-.4c-.4-.2-.8-.6-1.1-1-.3-.4-.5-.9-.7-1.5-.1-.6-.2-1.2-.2-1.8ZM135.9,60.5c0-.2,0-.3-.2-.5s-.3-.2-.5-.2-.3,0-.5.2c-.1.1-.2.3-.2.5s0,.3.2.5c.1.1.3.2.5.2s.3,0,.5-.2.2-.3.2-.5Z"/>
          <path class="cls-9" d="M145.4,60.5c0,.5-.2.9-.5,1.3-.3.3-.8.5-1.3.5s-.9-.2-1.3-.5c-.3-.3-.5-.8-.5-1.3s0-.5.1-.7c0-.2.2-.4.4-.6.2-.2.4-.3.6-.4s.4-.1.7-.1.5,0,.7.1.4.2.6.4c.2.2.3.4.4.6,0,.2.1.4.1.7ZM142.2,72c0-1.9.1-3.7.4-5.6,0-.2.1-.3.2-.5s.3-.2.5-.2.4,0,.5.2c.1.1.2.3.2.5s0,.3,0,.7c0,.4,0,.9-.1,1.4,0,.5,0,1.1-.1,1.7,0,.6,0,1.2,0,1.7s0,1.2.2,1.7.3.8.5,1,.4.4.7.5c.2,0,.5.1.7.1.4,0,.7-.1,1.1-.4s.8-.6,1.2-1.1.8-1,1.2-1.7c.4-.7.8-1.4,1.2-2.2s.2-.2.3-.3.2-.1.4-.1c.2,0,.4,0,.5.2s.2.3.2.5,0,.2,0,.3c-.2.3-.4.7-.6,1.1s-.5.9-.8,1.3c-.3.5-.6.9-1,1.4-.4.4-.7.9-1.1,1.2-.4.4-.8.6-1.3.9-.4.2-.9.3-1.3.3s-1.1-.1-1.5-.4c-.4-.2-.8-.6-1.1-1-.3-.4-.5-.9-.7-1.5-.1-.6-.2-1.2-.2-1.8ZM144.3,60.5c0-.2,0-.3-.2-.5s-.3-.2-.5-.2-.3,0-.5.2c-.1.1-.2.3-.2.5s0,.3.2.5c.1.1.3.2.5.2s.3,0,.5-.2.2-.3.2-.5Z"/>
        </g>
      </g>
      <g class="cls-10">
        <g class="cls-10">
          <path class="cls-3" d="M78,34.6c-1.4-.9-2.5-2.3-3.2-4-.7-1.7-1.1-3.7-1.1-6s.4-4.3,1.3-6.1,2.1-3.1,3.6-4c1.5-.9,3.2-1.4,5.1-1.4,3.1,0,5.5,1,7.2,3,1.7,2,2.5,4.7,2.5,8.2s-.4,4.4-1.3,6.2c-.9,1.8-2.1,3.1-3.7,4.1-1.5,1-3.3,1.5-5.2,1.5s-3.8-.5-5.2-1.4ZM79,17.3c-1.1,1.7-1.7,4.2-1.7,7.4s.5,5.4,1.6,7.1c1.1,1.8,2.6,2.6,4.6,2.6s3.4-.9,4.6-2.6c1.1-1.7,1.7-4.2,1.7-7.5s-.5-5.4-1.6-7.1c-1.1-1.7-2.6-2.5-4.6-2.5s-3.5.8-4.6,2.5Z"/>
          <path class="cls-3" d="M95.7,34.2l2.5-.3V15.3l-2.3-.4v-1.5h3.9c.6,0,1.3,0,2.3-.1,1,0,1.8-.1,2.3-.1,2.9,0,5,.5,6.3,1.4,1.2,1,1.9,2.4,1.9,4.5s-.4,2.7-1.2,3.9c-.8,1.2-1.9,2-3.3,2.4.6.3,1.2.9,1.8,1.8.5.8,1.2,2,2,3.5.6,1.1,1.1,1.9,1.4,2.5.3.5.6.8.9.9l1.2.3v1.5h-4.1c-.3,0-.7-.3-1.1-1-.4-.7-.9-1.8-1.6-3.2-.7-1.6-1.3-2.8-1.9-3.8s-1.1-1.5-1.6-1.8c-2.1,0-3.4,0-3.8,0v8l3,.3v1.5h-8.7v-1.5ZM108,23c.7-.8,1.1-2.1,1.1-3.8s-.4-2.6-1.1-3.3c-.8-.8-2-1.2-3.9-1.2s-1.3,0-1.9.1c-.4,0-.7,0-.8,0v9.3c.3,0,.9,0,1.9,0h1.7c1.3,0,2.3-.4,3-1.3Z"/>
          <path class="cls-3" d="M121.6,34.6c-1.6-1-2.8-2.3-3.6-4-.8-1.7-1.2-3.6-1.2-5.7s.5-4.6,1.5-6.3c1-1.8,2.3-3.1,4-4s3.7-1.4,5.9-1.4,4.3.3,7,.9l-.3,5.2h-2.1l-.7-3.6c-.3-.2-.8-.4-1.4-.6-.7-.2-1.6-.3-2.7-.3s-2.8.4-3.9,1.1c-1.1.7-2,1.8-2.6,3.2-.6,1.4-.9,3.1-.9,5.2s.3,3.6.8,5.1c.5,1.5,1.3,2.8,2.3,3.7,1,.9,2.3,1.4,3.9,1.4s1.9-.1,2.7-.3,1.5-.5,2-.9v-6.7l-3.8-.3v-1.8h8.8v1.8l-1.7.3v8.1c-.4,0-1.2.2-2.2.5-1,.3-2,.6-2.9.8-.9.2-1.9.3-3.1.3-2.2,0-4-.5-5.6-1.4Z"/>
          <path class="cls-3" d="M146.4,13.2h3.3l7.3,20.7,1.9.3v1.5h-7.9v-1.5l2.5-.3-1.4-4.4h-8.8l-1.4,4.4,2.6.3v1.5h-7.1v-1.5l1.9-.3,7.2-20.7ZM148.3,18l-.8-2.6-.7,2.7-3,9.6h7.7l-3.2-9.7Z"/>
          <path class="cls-3" d="M162.3,15.3l-2.4-.4v-1.5h5.6l10,14.6,1.7,3.2v-16l-2.6-.4v-1.5h7.1v1.5l-2.4.4v20.4h-2.4l-10.2-15-2.3-4v17.2l2.8.3v1.5h-7.3v-1.5l2.4-.3V15.3Z"/>
          <path class="cls-3" d="M186.8,15.3l-2.8-.4v-1.5h8.8v1.5l-2.8.4v18.7l2.8.3v1.4h-8.8v-1.5l2.8-.3V15.3Z"/>
          <path class="cls-3" d="M200.2,34.6c-1.5-1-2.7-2.3-3.5-4-.8-1.7-1.2-3.7-1.2-6.1s.5-4.2,1.4-5.9c.9-1.7,2.2-3.1,3.9-4,1.6-.9,3.5-1.4,5.5-1.4s3.4.2,5.5.7l1,.2-.3,5.4h-2l-.8-3.8c-.3-.2-.8-.4-1.5-.6-.7-.2-1.5-.3-2.5-.3s-2.4.4-3.4,1.1c-1,.7-1.8,1.8-2.4,3.2-.6,1.4-.9,3.1-.9,5.1s.2,3.6.8,5.1c.5,1.5,1.3,2.8,2.3,3.7,1,.9,2.3,1.4,3.8,1.4s1.9,0,2.4-.3,1.1-.4,1.5-.8l1.3-2.9,1.9.2-.7,4.3c-.4,0-1,.2-1.9.4-.7.2-1.4.4-2.1.5-.7.1-1.5.2-2.5.2-2.2,0-4.1-.5-5.6-1.4Z"/>
          <path class="cls-3" d="M226.9,34.6c-1.5-1-2.7-2.3-3.5-4-.8-1.7-1.2-3.7-1.2-6.1s.5-4.2,1.4-5.9c.9-1.7,2.2-3.1,3.9-4,1.6-.9,3.5-1.4,5.5-1.4s3.4.2,5.5.7l1,.2-.3,5.4h-2l-.8-3.8c-.3-.2-.8-.4-1.5-.6-.7-.2-1.5-.3-2.5-.3s-2.4.4-3.4,1.1c-1,.7-1.8,1.8-2.4,3.2-.6,1.4-.9,3.1-.9,5.1s.2,3.6.8,5.1c.5,1.5,1.3,2.8,2.3,3.7,1,.9,2.3,1.4,3.8,1.4s1.9,0,2.4-.3,1.1-.4,1.5-.8l1.3-2.9,1.9.2-.7,4.3c-.4,0-1,.2-1.9.4-.7.2-1.4.4-2.1.5-.7.1-1.5.2-2.5.2-2.2,0-4.1-.5-5.6-1.4Z"/>
          <path class="cls-3" d="M249.5,13.2h3.3l7.3,20.7,1.9.3v1.5h-7.9v-1.5l2.5-.3-1.4-4.4h-8.8l-1.4,4.4,2.6.3v1.5h-7.1v-1.5l1.9-.3,7.2-20.7ZM251.4,18l-.8-2.6-.7,2.7-3,9.6h7.7l-3.2-9.7Z"/>
          <path class="cls-3" d="M265.4,15.3l-2.6-.4v-1.5h16l.3,5.1h-2l-.9-3.3-7.7-.2v8.7h5.4c0,0,.5-2.6.5-2.6h1.6v7h-1.6l-.5-2.6h-5.4c0-.1,0,8.4,0,8.4l4.7.3v1.5h-10.3v-1.5l2.4-.3V15.3Z"/>
          <path class="cls-3" d="M284,15.3l-2.5-.4v-1.5h15.3l.4,4.7h-1.7l-.9-2.9-7.4-.2v8.5h5c0,0,.4-2.6.4-2.6h1.7v6.9h-1.7l-.4-2.6h-5c0,0,0,8.9,0,8.9l8.5-.3,1.6-3.8,1.8.5-.9,5.2h-16.6v-1.5l2.5-.3V15.3Z"/>
        </g>
      </g>
      <line class="cls-7" x1="17.5" y1="11.4" x2="19.1" y2="13.1"/>
      <path class="cls-4" d="M41.3,2.1c-1.7-1.3-6-1.6-6.8-1.5-2.6.2-5.1,3.6-.4,4.9-2.6,2-1.1,4.6,2,4.3-1.7,3,.5,5.6,3.5,4.4-.1,3.2,2.9,3.6,4.5,1.6,1.2,3,3.5,2.2,4.3.7,1.4,1.9,3.7,2.2,4,.1"/>
      <path class="cls-7" d="M22.1.5h3.3"/>
      <path class="cls-8" d="M.8,34.7c-2.1,9.3,9.1,24.1,27.7,23.9,16.9-.2,27.6-13.2,29.5-21.2.2-.8.3-1.5.3-2.2,0-3.9-14.6,1.6-29.6,1.7-13.9,0-25.9-5.5-27.9-2.2Z"/>
      <path class="cls-8" d="M56.7,40.7c2.1-2.1,6.4-.6,4.5,3.3-3.7,4.6-5.6.3-8.6,3-2.2,1.7-2.5,5.7-.1,8.8s5.9-2,4.3-3c-4.9-2.4-2.9-4.7-.4-4.3,4.5.3,5.9-.9,7.5-3.6,2.1-5-1.5-9.8-6-7.6"/>
      <path class="cls-5" d="M20.5,2.2c0-.5,0-1,0-1.4C11.6,2.2,3.6,13.8,4.1,13.3c2.4,1.7,8.2.4,10.8-1.5s5.5-5.5,5.7-9.6h0Z"/>
      <path class="cls-2" d="M2.8,15.2c-.6.8-1.2,3-1.2,3"/>
      <line class="cls-7" x1="6.1" y1="15.6" x2="5.8" y2="17.9"/>
      <line class="cls-7" x1="10.7" y1="15" x2="11.3" y2="17.2"/>
      <line class="cls-7" x1="14.4" y1="13.7" x2="15.6" y2="15.6"/>
      <line class="cls-7" x1="19.7" y1="9.1" x2="21.7" y2="10.2"/>
      <line class="cls-7" x1="21.7" y1="3.7" x2="24.1" y2="3.7"/>
      <line class="cls-7" x1="21.3" y1="6.6" x2="23.6" y2="6.8"/>
      <path class="cls-6" d="M58.2,34.7c1.5-8.9.5-23.6-16.9-32.6,0,0-.8-.2-.5.4s5,4.5,4.6,5-5.5-.6-5.5,0,7.7,1.4,7.5,2.3-4.5,2.3-3.6,2.8,3.9-2.2,4.5-1.8c.5.4,9.5,9.2,5.6,22.9"/>
      <g>
        <path class="cls-1" d="M21,22.2l-.7,1.5c0,0-.2.1-.2,0h0c0,0-.1-.2,0-.3l.7-1.5c.1-.2,0-.4-.2-.5s-.4,0-.5.2l-.7,1.5c0,0-.2.1-.2,0h0c0,0-.1-.2,0-.3l.7-1.5c.2-.4-.4-.7-.6-.3l-.7,1.4c-.4.8-.3,1.1-.1,1.4.1.3.3.5,0,1l-1.5,3.1.7.4,1.5-3.1c.2-.5.5-.5.8-.6.4,0,.7-.2,1.1-1l.7-1.4c.2-.4-.4-.7-.6-.3h0Z"/>
        <path class="cls-1" d="M23.3,23.4c-.4.4-1.3,1.2-1.8,2.1-.7,1.4.2,1.6-.2,2.5l-.9,1.8.7.4h0c0-.1.8-1.6,1.5-3.1.7-1.5,1.4-3,1.6-3.2.3-.5-.4-1-.9-.5Z"/>
      </g>
      <path class="cls-13" d="M30.3,9.5c0-.1,0-.2,0-.3-.4-1-1.5-1.5-2.5-1.1-.3.1-.5.2-.7.4-.5-.2-1-.2-1.5,0-1,.4-1.6,1.6-1.3,2.6-.6.6-.8,1.5-.5,2.3.4,1.1,1.7,1.6,2.8,1.2.2,0,.4-.2.5-.3.4.3,1.3,1.1,1.7,2.4l1.9-.8s-.5-1-.6-3c.3,0,.5,0,.8-.1.9-.4,1.4-1.4,1-2.3-.3-.7-.9-1.1-1.6-1.1h0ZM27.5,14.1c.2,0,.4,0,.6,0l.3.7-.9-.8h0ZM29.4,14.9l-.6-1c.2-.1.3-.2.4-.4v1.4c.1,0,.1,0,.1,0Z"/>
      <g>
        <path class="cls-13" d="M52.3,24.7l.2-.5h-.3c0-.1-.3-.3-.3-.3l-.2.5c-.2.5-1.2-.1-1.8.7-.5.7-.8.9-.8.9,0,0,1,.4,1.4,0,0,0,0,.7.4,1.2.7,0,1.1-.5,1.1-.5,0,.7,1,1.1,1,1.1,0,0,0-.3,0-1.2.2-.9-1-1.3-.8-1.7h0Z"/>
        <path class="cls-13" d="M51.8,27.3c-.3.2-.6.3-1,.2,0,0-.2,0-.3-.1-.3-.3-.4-.6-.5-.9-.3,0-.6,0-.8,0-.7.7-2,1.3-2.7,1.7-2,1.1-2.1,3.1-1.2,4.1.8.9,2.3,1.2,4.2-.2,1.6-1.1,2.3-3.3,2.6-4.3-.2-.1-.3-.2-.5-.5h0ZM45.6,31.3c-.2-2.1,2.1-2.5,2.1-2.5,0,0-1.5,1.4-2.1,2.5Z"/>
      </g>
      <g>
        <path class="cls-1" d="M40.6,27.8h-.4c0,.1.8.9.8.9,0,.1.1.3,0,.4,0,.1-.2.1-.3.1s0,0,0,0l-1.8-.6-.6.8c0,0-.2.1-.3.1s-.2,0-.3-.1l-.6-.8-1.8.6s0,0,0,0c-.1,0-.2,0-.3-.1,0-.1,0-.3,0-.4l.8-.8h-.4c-.7.6-1.1,1.5-1.1,2.5,0,2.1,1.7,3.8,3.8,3.8s3.8-1.7,3.8-3.8-.4-2-1.1-2.7ZM35.4,31.3c0,0-.2,0-.3-.1,0-.2-.1-.4-.1-.6s0-.4.1-.6c0-.1.2-.2.3-.1.1,0,.2.2.1.3,0,.1,0,.3,0,.4s0,.3,0,.5c0,.1,0,.2-.1.3h0Z"/>
        <path class="cls-1" d="M34.7,27.3l1.4.4s0,0,0,0c0,0,0,0,0,0l-.8.8s0,0,0,.1c0,0,0,0,.1,0l1.6-.5s0,0,0,0l.6.8s0,0,0,0,0,0,0,0l.6-.8s0,0,0,0l1.6.5s0,0,.1,0c0,0,0,0,0-.1l-.8-.8s0,0,0,0c0,0,0,0,0,0l1.4-.4s0,0,0-.1c0,0,0,0,0,0l-1.5-.3s0,0,0,0c0,0,0,0,0,0l.4-.5s0,0,0-.1,0,0,0,0l-1.2.4s0,0,0,0l-.5-.6s0,0,0,0,0,0,0,0l-.5.6s0,0,0,0l-1.2-.4s0,0,0,0c0,0,0,0,0,.1l.4.5s0,0,0,0c0,0,0,0,0,0l-1.5.3s0,0,0,0c0,0,0,0,0,.1h0Z"/>
      </g>
      <path class="cls-1" d="M2.7,25.9c0,0-.2.1-.2.2,0-.1-.2-.3-.2-.4-.1-.2-.3-.5-.4-.7,0,0-.2.1-.2.2,0,0-.1,0-.1.1.1.2.3.4.5.7,0,0,.1.2.2.3,0,0,0,0,0,0,0,0,0,0,0,0-.1-.1-.2-.2-.3-.3,0,0-.2-.2-.2-.2-.1-.1-.2-.2-.4-.3,0,0-.2.1-.2.2.1.1.2.2.4.4,0,0,.1.1.2.2,0,0,0,0,0,0,0,0,0,0,0,0-.2-.2-.5-.3-.7-.5,0,0-.1.1-.2.2.2.1.4.3.6.5.1.1.3.2.4.3-.1.1-.2.2-.2.2-.6.7-.3,1.6.4,2.1.5.4,4.3,3.4,5.7,4.1,1,.5.9-.2.8-.6-.3-.8-3.1-5.1-3.8-6-.6-.8-1.3-1.1-2-.6h0Z"/>
      <g>
        <path class="cls-13" d="M28.9,22.8c.1-.6.3-1.2.4-1.8,0-.4.2-.7.3-1h0c0-.2,0-.4-.3-.4-1.1.2-2.2,1.5-2.5,2.9-.3,1.4.3,2.4,1.3,2.9.2,0,.4,0,.4-.2,0-.2,0-.5,0-.7,0-.5.1-1.1.3-1.6h0Z"/>
        <path class="cls-13" d="M31.8,23.5c.3-1.4-.2-3-1.2-3.6-.2-.1-.4,0-.4.2h0c0,.4,0,.8-.1,1.1,0,.6-.2,1.2-.3,1.8-.1.5-.2,1.1-.4,1.6,0,.2-.1.4-.2.6,0,.2,0,.3.2.3,1.1,0,2-.7,2.3-2.1h0Z"/>
      </g>
      <g>
        <path class="cls-13" d="M43.2,21.8c-.2-.6-.3-1.1-.4-1.7,0-.3-.1-.7-.2-1h0c0-.2-.2-.3-.4-.2-.9.6-1.3,2.2-.9,3.6.4,1.4,1.3,2,2.4,1.9.2,0,.3-.2.2-.4,0-.2-.2-.5-.2-.6-.2-.5-.3-1-.5-1.5h0Z"/>
        <path class="cls-13" d="M46.1,21.1c-.3-1.3-1.5-2.5-2.6-2.6-.2,0-.3.2-.3.4,0,0,0,0,0,0,.1.3.3.6.4,1,.2.6.4,1.1.5,1.7.1.5.2,1,.3,1.6,0,.2,0,.4.1.6,0,.2.2.3.4.2.9-.5,1.5-1.5,1.1-2.9h0Z"/>
      </g>
      <g>
        <path class="cls-13" d="M11.7,24c-.6-.6-1.2-1.2-1.7-1.8-.4-.3-.7-.7-1-1.1h0c-.2-.2-.5-.2-.6,0-.6,1.4.1,3.5,1.5,4.9,1.4,1.3,3,1.4,4.2.5.2-.1.2-.4,0-.6-.3-.2-.5-.4-.8-.6-.6-.5-1.1-1-1.7-1.5h0Z"/>
        <path class="cls-13" d="M14.7,21.1c-1.4-1.3-3.6-1.9-4.9-1.2-.2.1-.3.5,0,.6,0,0,0,0,0,0,.4.3.8.6,1.1.9.6.5,1.2,1.1,1.8,1.6.5.5,1,1,1.6,1.6.2.2.4.5.6.7.2.2.4.2.6,0,.8-1.2.6-2.8-.8-4.2h0Z"/>
      </g>
      <circle class="cls-1" cx="28.3" cy="3" r="1"/>
      <circle class="cls-1" cx="3.6" cy="22.4" r="1"/>
      <circle class="cls-15" cx="19.7" cy="17.4" r="1"/>
      <circle class="cls-15" cx="12.7" cy="31.3" r="1"/>
      <circle class="cls-1" cx="35.3" cy="18.5" r="1"/>
      <path class="cls-13" d="M30.4,30.8c0-.8-.7-1.5-1.5-1.5s-.3,0-.5,0c0-.8-.7-1.5-1.5-1.5s-1.5.7-1.5,1.5c-.1,0-.3,0-.5,0-.8,0-1.5.7-1.5,1.5s.4,1.2,1,1.4c-.2.2-.3.6-.3.9,0,.8.7,1.5,1.5,1.5s1-.2,1.2-.6c.3.4.7.6,1.2.6.8,0,1.5-.7,1.5-1.5s-.1-.6-.3-.9c.6-.2,1-.8,1.1-1.4ZM26.9,32.4c-.4,0-.8-.3-.8-.8s.4-.8.8-.8.8.4.8.8-.4.8-.8.8Z"/>
      <g>
        <path class="cls-12" d="M6.3,45.4c-.3-.2-.5-.5-.7-.8s-.2-.8-.2-1.2,0-.9.3-1.3c.2-.4.4-.6.8-.8s.7-.3,1.1-.3c.6,0,1.1.2,1.5.6s.5,1,.5,1.7,0,.9-.3,1.3c-.2.4-.4.7-.8.9-.3.2-.7.3-1.1.3s-.8,0-1.1-.3h0ZM6.6,41.8c-.2.3-.3.9-.3,1.5s.1,1.1.3,1.5.6.5.9.5.7-.2,1-.5.4-.9.4-1.6-.1-1.1-.3-1.5c-.2-.3-.5-.5-1-.5s-.7.2-1,.5h0Z"/>
        <path class="cls-12" d="M10.1,45.3h.5v-4h-.5v-.4h.8c.1,0,.3,0,.5,0,.2,0,.4,0,.5,0,.6,0,1.1,0,1.3.3.3.2.4.5.4.9s0,.6-.2.8c-.2.2-.4.4-.7.5.1,0,.3.2.4.4.1.2.3.4.4.7.1.2.2.4.3.5,0,.1.1.2.2.2h.2v.4h-.9c0,0-.1,0-.2-.2s-.2-.4-.3-.7c-.1-.3-.3-.6-.4-.8s-.2-.3-.3-.4h-.8v1.7h.6v.4h-1.8v-.3h0ZM12.6,43c.1-.2.2-.4.2-.8s0-.5-.2-.7c-.2-.2-.4-.2-.8-.2s-.3,0-.4,0c0,0-.1,0-.2,0v1.9h.8c.3,0,.5,0,.6-.3h0Z"/>
        <path class="cls-12" d="M15.4,45.4c-.3-.2-.6-.5-.8-.8-.2-.3-.3-.8-.3-1.2s.1-1,.3-1.3.5-.7.8-.8c.4-.2.8-.3,1.2-.3s.9,0,1.5.2v1.1h-.5v-.8c-.2,0-.3,0-.4-.1s-.3,0-.6,0-.6,0-.8.2-.4.4-.6.7-.2.7-.2,1.1,0,.7.2,1.1.3.6.5.8c.2.2.5.3.8.3s.4,0,.6,0,.3-.1.4-.2v-1.4h-.8v-.4h1.8v.4h-.4v1.7c0,0-.2,0-.5.1s-.4.1-.6.2-.4,0-.6,0c-.5,0-.8,0-1.2-.3h0Z"/>
        <path class="cls-12" d="M20.6,40.9h.7l1.5,4.3h.4v.4h-1.6v-.3h.5c0,0-.3-1-.3-1h-1.8l-.3.9h.5v.4h-1.5v-.3h.4c0,0,1.5-4.4,1.5-4.4h0ZM21,41.9l-.2-.5v.6c-.1,0-.8,2-.8,2h1.6s-.7-2-.7-2Z"/>
        <path class="cls-12" d="M23.9,41.4h-.5v-.4h1.2l2.1,3,.4.7v-3.3h-.5v-.4h1.5v.3h-.5v4.3h-.5l-2.1-3.1-.5-.8v3.6h.6v.4h-1.5v-.3h.5v-4h0Z"/>
        <path class="cls-12" d="M29,41.4h-.6v-.4h1.8v.3h-.6v4h.6v.4h-1.8v-.3h.6v-4h0Z"/>
        <path class="cls-12" d="M31.8,45.4c-.3-.2-.6-.5-.7-.8s-.2-.8-.2-1.3.1-.9.3-1.2c.2-.4.5-.6.8-.8s.7-.3,1.2-.3.7,0,1.2.2h.2s0,1.2,0,1.2h-.4l-.2-.8c0,0-.2,0-.3-.1s-.3,0-.5,0-.5,0-.7.2-.4.4-.5.7-.2.7-.2,1.1,0,.8.2,1.1c.1.3.3.6.5.8.2.2.5.3.8.3s.4,0,.5,0,.2,0,.3-.2l.3-.6h.4s-.2.9-.2.9c0,0-.2,0-.4,0-.2,0-.3,0-.4.1s-.3,0-.5,0c-.5,0-.8,0-1.2-.3Z"/>
        <path class="cls-12" d="M37.4,45.4c-.3-.2-.6-.5-.7-.8-.2-.4-.2-.8-.2-1.3s0-.9.3-1.2c.2-.4.5-.6.8-.8s.7-.3,1.2-.3.7,0,1.2.2h.2s0,1.2,0,1.2h-.4l-.2-.8c0,0-.2,0-.3-.1s-.3,0-.5,0-.5,0-.7.2-.4.4-.5.7-.2.7-.2,1.1,0,.8.2,1.1c0,.3.3.6.5.8.2.2.5.3.8.3s.4,0,.5,0,.2,0,.3-.2l.3-.6h.4s-.2.9-.2.9c0,0-.2,0-.4,0-.2,0-.3,0-.4.1s-.3,0-.5,0c-.5,0-.8,0-1.2-.3Z"/>
        <path class="cls-12" d="M42.1,40.9h.7l1.5,4.3h.4v.4h-1.7v-.3h.5c0,0-.3-1-.3-1h-1.8l-.3.9h.5v.4h-1.5v-.3h.4c0,0,1.5-4.4,1.5-4.4h0ZM42.5,41.9l-.2-.5-.2.6-.6,2h1.6s-.7-2-.7-2Z"/>
        <path class="cls-12" d="M45.4,41.4h-.5v-.4h3.3v1.1c0,0-.3,0-.3,0l-.2-.7h-1.6s0,1.8,0,1.8h1.1s.1-.5.1-.5h.3v1.5h-.3v-.5c-.1,0-1.2,0-1.2,0v1.8h1v.4h-2.2v-.3h.5v-4h0Z"/>
        <path class="cls-12" d="M49.3,41.4h-.5v-.4h3.2v1c0,0-.3,0-.3,0l-.2-.6h-1.5s0,1.7,0,1.7h1s0-.5,0-.5h.3v1.4h-.3v-.5c0,0-1.1,0-1.1,0v1.9h1.8c0,0,.3-.9.3-.9h.4c0,.1-.2,1.2-.2,1.2h-3.5v-.3h.5v-4h0Z"/>
      </g>
      <g>
        <path class="cls-11" d="M36.3,62.4c-.2.3-.5.7-.8,1.2-.3.5-.6,1-.9,1.6-.3.5-.5,1-.8,1.5-.3.5-.5,1.1-.7,1.6s-.5,1-.7,1.5-.4.9-.5,1.3c-.1.4-.3.7-.3.9,0,.2-.1.3-.1.3,0,.1-.1.2-.3.2s-.1,0-.2,0c0,0,0,0-.1-.2,0,0,0-.1,0-.3,0-.2-.1-.5-.2-.9s-.2-.8-.3-1.3-.2-1-.3-1.5-.2-1-.4-1.6-.2-1-.3-1.5c-.4,1-.7,1.9-1.1,2.6-.4.8-.7,1.4-1.1,2-.4.6-.8,1-1.1,1.4-.4.4-.8.7-1.2.9-.4.2-.9.4-1.4.5s-1,.2-1.5.2-.6,0-.9,0c-.3,0-.6-.2-.9-.3-.3-.1-.6-.3-.9-.5s-.5-.4-.7-.7c-.2-.3-.4-.6-.5-.9-.1-.3-.2-.7-.2-1.1s0-.8.3-1.2c.2-.3.4-.7.7-.9s.6-.4,1.1-.6.8-.2,1.3-.2.6,0,.9,0c.3,0,.5.1.7.2.2,0,.4.2.5.3.1,0,.3.2.4.3,0,0,.2.2.2.2s0,0,0,0c0,0,0,.1,0,.2s0,.1,0,.2-.1,0-.2,0-.2,0-.2-.1c0,0,0,0-.1-.2,0,0-.2-.2-.4-.3-.2-.1-.4-.2-.7-.3-.3,0-.6-.1-1-.1s-.7,0-1,.2-.6.3-.9.5c-.2.2-.4.4-.6.7s-.2.6-.2.9,0,.6.2.9c.1.3.3.5.4.7.2.2.4.4.6.6.2.2.5.3.8.4s.5.2.8.2c.3,0,.5,0,.8,0,.4,0,.8,0,1.2,0,.4,0,.8-.2,1.1-.3s.7-.4,1.1-.7.7-.7,1.1-1.2c.4-.5.7-1,1-1.7.3-.7.7-1.4,1-2.3.1-.3.2-.6.3-.9s.2-.6.3-1c0-.5-.1-.8-.2-1.2,0-.3,0-.6,0-.8s0-.4,0-.5c0-.1,0-.2.1-.3s.1-.1.2-.1.1,0,.2,0,.1,0,.2,0,.1,0,.2.1c0,0,.1.2.1.3,0,.1,0,.3,0,.5s0,.5,0,.9c0,.3-.1.7-.2,1.1,0,.3.1.7.2,1.1,0,.4.2.8.3,1.2s.2.8.3,1.3.2.9.3,1.3.2.8.3,1.2.2.7.2,1c.1-.4.3-.8.5-1.3.2-.5.4-1,.7-1.6s.5-1.2.8-1.7c.3-.6.6-1.1.9-1.7.4-.7.8-1.4,1.1-1.9.3-.5.6-1,.9-1.3s.5-.6.6-.8.2-.3.2-.3c0,0,.1,0,.2,0s.2,0,.2,0c0,0,0,.1,0,.2s0,0,0,.1c0,0,0,0,0,.2s-.1.3-.2.6c0,.3-.2.6-.3.9s-.2.7-.3,1.1-.2.8-.3,1.3-.1.9-.2,1.3c0,.2,0,.4,0,.6,0,.2,0,.4,0,.7,0,.3,0,.7,0,1s0,.7.2,1c0,.3.2.6.3.9.1.3.3.5.5.8.2.2.4.4.7.5s.5.2.9.2c0,0,.2,0,.2.1s0,.1,0,.2,0,.1,0,.2-.1,0-.2,0-.2,0-.2,0c-.4,0-.7-.2-1-.3s-.5-.4-.8-.6-.4-.5-.5-.8c-.1-.3-.2-.6-.3-1s-.1-.7-.2-1.1c0-.4,0-.8,0-1.2s0-.9,0-1.4.1-.9.2-1.4c0-.4.2-.9.3-1.3s.2-.8.3-1.2h0Z"/>
        <path class="cls-11" d="M40.5,66.3c0,.2,0,.4-.2.5s-.3.2-.5.2-.4,0-.5-.2-.2-.3-.2-.5,0-.2,0-.3,0-.2.2-.2c0,0,.1-.1.2-.2s.2,0,.3,0,.2,0,.3,0,.2,0,.2.2.1.1.2.2c0,0,0,.2,0,.3h0ZM39.3,70.9c0-.8,0-1.5.1-2.2,0,0,0-.1,0-.2,0,0,.1,0,.2,0s.1,0,.2,0c0,0,0,.1,0,.2s0,.1,0,.3c0,.2,0,.3,0,.6s0,.4,0,.7,0,.5,0,.7,0,.5,0,.7c0,.2.1.3.2.4,0,0,.2.2.3.2,0,0,.2,0,.3,0,.2,0,.3,0,.5-.2.2,0,.3-.2.5-.4s.3-.4.5-.7c.2-.3.3-.6.5-.9,0,0,0,0,.1-.1,0,0,0,0,.2,0s.2,0,.2,0c0,0,0,.1,0,.2s0,0,0,.1c0,.1-.1.3-.2.4,0,.2-.2.3-.3.5s-.2.4-.4.6c-.1.2-.3.3-.5.5-.2.1-.3.3-.5.3-.2,0-.4.1-.5.1s-.4,0-.6-.2-.3-.2-.5-.4-.2-.4-.3-.6c0-.2,0-.5,0-.7h0ZM40.1,66.3c0,0,0-.1,0-.2s-.1,0-.2,0-.1,0-.2,0c0,0,0,.1,0,.2s0,.1,0,.2.1,0,.2,0,.1,0,.2,0c0,0,0-.1,0-.2Z"/>
        <path class="cls-11" d="M43.9,66.3c0,.2,0,.4-.2.5s-.3.2-.5.2-.4,0-.5-.2-.2-.3-.2-.5,0-.2,0-.3,0-.2.2-.2c0,0,.1-.1.2-.2s.2,0,.3,0,.2,0,.3,0,.2,0,.2.2.1.1.2.2c0,0,0,.2,0,.3h0ZM42.7,70.9c0-.8,0-1.5.1-2.2,0,0,0-.1,0-.2,0,0,.1,0,.2,0s.1,0,.2,0c0,0,0,.1,0,.2s0,.1,0,.3c0,.2,0,.3,0,.6s0,.4,0,.7,0,.5,0,.7,0,.5,0,.7c0,.2.1.3.2.4,0,0,.2.2.3.2,0,0,.2,0,.3,0,.2,0,.3,0,.5-.2.2,0,.3-.2.5-.4s.3-.4.5-.7c.2-.3.3-.6.5-.9,0,0,0,0,.1-.1,0,0,0,0,.2,0s.2,0,.2,0c0,0,0,.1,0,.2s0,0,0,.1c0,.1-.1.3-.2.4,0,.2-.2.3-.3.5s-.2.4-.4.6c-.1.2-.3.3-.5.5-.2.1-.3.3-.5.3-.2,0-.4.1-.5.1s-.4,0-.6-.2-.3-.2-.5-.4-.2-.4-.3-.6c0-.2,0-.5,0-.7h0ZM43.5,66.3c0,0,0-.1,0-.2s-.1,0-.2,0-.1,0-.2,0c0,0,0,.1,0,.2s0,.1,0,.2.1,0,.2,0,.1,0,.2,0c0,0,0-.1,0-.2Z"/>
      </g>
    </g>
  </g>
</svg>