<?xml version="1.0" encoding="UTF-8"?>
<svg xmlns="http://www.w3.org/2000/svg" version="1.1" viewBox="0 0 95.02 119">
  <defs>
    <style>
      .cls-1, .cls-2, .cls-3, .cls-4, .cls-5, .cls-6, .cls-7 {
        stroke-miterlimit: 10;
      }

      .cls-1, .cls-3 {
        fill: none;
      }

      .cls-1, .cls-7 {
        stroke: #f9c45d;
      }

      .cls-2, .cls-8 {
        fill: #4f644b;
      }

      .cls-2, .cls-3, .cls-6 {
        stroke: #4f644b;
      }

      .cls-4 {
        fill: #f7b52c;
        stroke: #efb862;
      }

      .cls-5 {
        fill: #efb862;
        stroke: #f5ac3c;
      }

      .cls-9 {
        fill: #fac55e;
      }

      .cls-10 {
        fill: #eeb033;
        font-family: Merriweather-Regular, Merriweather;
        font-size: 8.5px;
      }

      .cls-6 {
        fill: #233d1e;
        font-family: Sacramento-Regular, Sacramento;
        font-size: 17.07px;
      }

      .cls-11, .cls-7 {
        fill: #f9c45d;
      }
    </style>
  </defs>
  <!-- Generator: Adobe Illustrator 28.7.1, SVG Export Plug-In . SVG Version: 1.2.0 Build 142)  -->
  <g>
    <g id="_レイヤー_1" data-name="レイヤー_1">
      <g>
        <path class="cls-1" d="M33.31,11.63c1.32,0,2.58,0,4.44,0"/>
        <text/>
        <path class="cls-2" d="M4.35,58.04c-2.91,12.61,12.35,32.73,37.57,32.49,22.92-.22,37.43-17.95,40.06-28.78.26-1.09.41-2.1.43-3.03.13-5.26-19.9,2.16-40.19,2.29-18.83.12-35.18-7.4-37.86-2.97Z"/>
        <path class="cls-2" d="M80.35,66.28c2.91-2.91,8.73-.85,6.18,4.49-4.97,6.3-7.64.36-11.73,4.08-3.06,2.34-3.34,7.79-.15,11.92,3.19,4.13,8-2.67,5.82-4-6.67-3.27-3.88-6.43-.48-5.82,6.06.36,8-1.21,10.18-4.85,2.91-6.79-2.07-13.32-8.19-10.36"/>
        <path class="cls-4" d="M31.24,13.93c.02-.68.03-1.33-.11-1.96-11.99,2.02-22.87,17.77-22.25,17.02,3.31,2.25,11.18.47,14.65-1.98,3.48-2.46,7.52-7.48,7.71-13.07Z"/>
        <path class="cls-7" d="M7.17,31.65c-.85,1.02-1.7,4.02-1.7,4.02"/>
        <line class="cls-7" x1="11.65" y1="32.17" x2="11.17" y2="35.28"/>
        <line class="cls-7" x1="17.89" y1="31.31" x2="18.69" y2="34.32"/>
        <line class="cls-7" x1="22.92" y1="29.5" x2="24.58" y2="32.18"/>
        <line class="cls-1" x1="27.08" y1="26.43" x2="29.27" y2="28.68"/>
        <line class="cls-1" x1="30.1" y1="23.29" x2="32.85" y2="24.82"/>
        <line class="cls-1" x1="32.85" y1="15.95" x2="36" y2="15.9"/>
        <line class="cls-1" x1="32.2" y1="19.84" x2="35.32" y2="20.22"/>
        <path class="cls-5" d="M82.31,58.04c2.04-12.05.75-32.01-22.94-44.3,0,0-1.05-.32-.65.48s6.79,6.07,6.22,6.75-7.52-.84-7.52,0,10.43,1.91,10.18,3.07c-.24,1.16-6.14,3.1-4.85,3.83,1.29.73,5.33-2.99,6.06-2.42s12.87,12.51,7.61,31.18"/>
        <path class="cls-3" d="M59.38,13.74c-2.26-1.78-8.14-2.21-9.29-2.1-3.48.32-6.87,4.85-.57,6.63-3.53,2.71-1.54,6.19,2.67,5.79-2.26,4.07.73,7.59,4.77,5.94-.16,4.32,3.88,4.84,6.06,2.17,1.7,4.12,4.77,2.93,5.9.97,1.94,2.57,5.01,2.93,5.36.17"/>
        <g>
          <path class="cls-11" d="M31.86,41.04l-.95,1.97c-.06.13-.21.18-.34.12l-.06-.03c-.13-.06-.18-.21-.12-.34l.96-1.98c.16-.32-.01-.53-.22-.63s-.47-.11-.63.21l-.96,1.98c-.06.13-.21.18-.34.12l-.06-.03c-.13-.06-.18-.21-.12-.34l.95-1.97c.28-.58-.56-.96-.83-.39l-.91,1.88c-.51,1.04-.39,1.43-.14,1.96.21.42.42.71.1,1.36l-2.03,4.18,1,.48,2.03-4.18c.31-.65.67-.66,1.13-.76.57-.13.95-.28,1.45-1.32l.91-1.88c.27-.57-.54-.99-.82-.41Z"/>
          <path class="cls-11" d="M34.98,42.79c-.5.49-1.78,1.59-2.42,2.8-.98,1.88.32,2.16-.26,3.42l-1.21,2.5.99.48h0s0,0,0,0c.08-.17,1.04-2.16,2.03-4.18l2.13-4.4c.35-.72-.49-1.38-1.27-.61Z"/>
        </g>
        <path class="cls-8" d="M44.43,23.91c-.03-.13-.07-.26-.12-.39-.54-1.34-2.06-1.99-3.4-1.46-.35.14-.65.34-.89.59-.66-.23-1.4-.23-2.1.05-1.42.57-2.17,2.11-1.79,3.55-.79.79-1.07,2-.63,3.1.59,1.47,2.26,2.19,3.74,1.6.27-.11.51-.25.73-.43.55.41,1.75,1.47,2.34,3.29l2.63-1.05s-.73-1.38-.8-4.07c.35.03.72-.02,1.07-.17,1.23-.49,1.83-1.89,1.34-3.12-.36-.9-1.21-1.46-2.11-1.51ZM40.71,30.12c.26.06.52.07.79.04l.41.99-1.2-1.02ZM43.19,31.26l-.78-1.41c.22-.13.42-.29.58-.48l.2,1.89Z"/>
        <g>
          <path class="cls-8" d="M74.39,44.55l.31-.73-.48-.2-.48-.2-.31.73c-.32.61-1.61-.2-2.42.9-.73,1-1.08,1.2-1.08,1.2,0,0,1.38.48,1.96-.08,0,0-.08.98.57,1.58.88.05,1.54-.68,1.54-.68.06.93,1.3,1.46,1.3,1.46,0,0-.13-.4.12-1.61.26-1.28-1.28-1.78-1.03-2.37Z"/>
          <path class="cls-8" d="M73.73,48.01c-.42.24-.87.35-1.31.32-.14,0-.26-.06-.36-.15-.38-.35-.58-.8-.67-1.18-.47.07-.77.07-1.07,0-.88.92-2.75,1.77-3.65,2.29-2.71,1.56-2.91,4.18-1.57,5.55,1.15,1.18,3.08,1.67,5.72-.26,2.12-1.55,3.09-4.48,3.52-5.88-.25-.16-.37-.34-.61-.69ZM65.29,53.42c-.31-2.87,2.81-3.4,2.81-3.4,0,0-2.08,1.83-2.81,3.4Z"/>
        </g>
        <g>
          <path class="cls-11" d="M58.49,48.74l-.59.19,1.04,1.09c.14.15.16.37.06.55-.08.13-.23.21-.38.21-.04,0-.09,0-.13-.02l-2.48-.79-.79,1.07c-.08.11-.22.18-.36.18s-.28-.07-.36-.18l-.79-1.07-2.48.79s-.09.02-.13.02c-.15,0-.3-.08-.38-.21-.11-.17-.09-.4.06-.55l1.04-1.09-.59-.19c-.93.93-1.5,2.21-1.5,3.63,0,2.84,2.3,5.14,5.14,5.14s5.14-2.3,5.14-5.14c0-1.42-.57-2.7-1.5-3.63ZM51.45,53.42c-.14.06-.31,0-.37-.14-.11-.26-.18-.55-.18-.85,0-.28.05-.54.15-.78.06-.14.22-.21.36-.16.14.06.21.22.16.36-.07.18-.11.37-.11.58,0,.22.05.43.13.62.06.14,0,.31-.14.37Z"/>
          <path class="cls-11" d="M50.51,48.05l1.9.6s.07.05.08.09c.01.04,0,.09-.03.12l-1.05,1.1s-.05.11-.02.15c.03.05.09.07.15.05l2.23-.71c.05-.02.11,0,.14.05l.82,1.12s.06.05.1.05.08-.02.1-.05l.82-1.12s.09-.06.14-.05l2.23.71c.06.02.12,0,.15-.05.03-.05.02-.11-.02-.15l-1.05-1.1s-.04-.08-.03-.12c.01-.04.04-.08.08-.09l1.9-.6c.06-.02.09-.07.09-.13,0-.06-.05-.11-.1-.12l-2.02-.36s-.08-.04-.1-.08c-.02-.04-.01-.09.02-.12l.49-.66s.03-.1,0-.15c-.03-.04-.09-.06-.14-.05l-1.66.48s-.1,0-.13-.04l-.69-.83s-.06-.05-.1-.05-.07.02-.1.05l-.69.83s-.08.05-.13.04l-1.66-.48c-.05-.02-.11,0-.14.05-.03.04-.03.1,0,.15l.49.66s.03.08.02.12c-.02.04-.05.07-.1.08l-2.02.36c-.06,0-.1.06-.1.12,0,.06.03.11.09.13Z"/>
        </g>
        <path class="cls-11" d="M6.98,46.17c-.11.07-.21.15-.31.22-.11-.18-.23-.36-.34-.55-.18-.3-.36-.61-.54-.92-.11.1-.22.19-.34.28-.07.05-.13.1-.2.15.21.3.42.6.64.89.09.13.19.25.29.38.02.03.05.06.07.09-.03.03-.06.05-.09.08-.14-.14-.27-.29-.41-.43-.11-.11-.21-.22-.32-.32-.16-.15-.31-.31-.47-.46-.11.09-.22.17-.33.26.17.16.34.33.5.49.09.09.18.18.27.28.02.02.04.04.06.07-.03-.02-.05-.04-.08-.06-.3-.22-.61-.44-.92-.65-.09.07-.18.15-.27.22.3.2.59.4.88.61.2.15.4.29.59.44-.16.16-.24.26-.24.26-.84.95-.38,2.17.58,2.89.67.51,5.8,4.67,7.73,5.56,1.35.62,1.26-.27,1.06-.85-.38-1.07-4.19-6.97-5.15-8.16-.87-1.07-1.72-1.44-2.68-.8Z"/>
        <g>
          <path class="cls-8" d="M42.51,41.89c.16-.81.37-1.6.57-2.41.11-.48.24-.95.41-1.41,0,0,0,0,0,0,.09-.25-.12-.51-.39-.47-1.5.22-2.95,1.99-3.33,3.89-.38,1.9.44,3.3,1.79,3.86.22.09.47-.06.49-.3.03-.33.07-.66.1-.95.11-.74.21-1.48.35-2.22Z"/>
          <path class="cls-8" d="M46.55,42.85c.38-1.9-.28-4.09-1.58-4.87-.23-.14-.52.02-.54.28,0,.02,0,.04,0,.04-.02.49-.08.97-.16,1.46-.12.82-.24,1.63-.4,2.44-.15.74-.34,1.45-.52,2.18-.08.27-.17.58-.26.88-.07.23.1.46.34.46,1.46,0,2.75-.98,3.13-2.88Z"/>
        </g>
        <g>
          <path class="cls-8" d="M62.01,40.52c-.21-.78-.36-1.56-.53-2.35-.11-.47-.19-.93-.24-1.41,0,0,0,0,0,0-.03-.26-.33-.4-.55-.25-1.22.84-1.73,3.01-1.25,4.83.48,1.83,1.8,2.7,3.22,2.62.23-.01.39-.25.31-.47-.11-.3-.22-.61-.32-.88-.22-.7-.45-1.38-.64-2.09Z"/>
          <path class="cls-8" d="M65.96,39.62c-.48-1.83-2-3.47-3.48-3.59-.26-.02-.45.24-.35.48,0,.02.01.03.02.04.19.44.35.89.48,1.34.24.77.49,1.53.7,2.31.19.71.32,1.42.48,2.14.05.27.1.58.15.89.04.23.29.36.5.26,1.28-.63,1.99-2.04,1.51-3.87Z"/>
        </g>
        <g>
          <path class="cls-8" d="M19.25,43.62c-.81-.77-1.57-1.57-2.35-2.37-.47-.47-.91-.96-1.32-1.48,0,0,0,0,0,0-.23-.29-.68-.23-.82.11-.82,1.88.17,4.8,2.07,6.59,1.9,1.79,4.09,1.86,5.7.72.27-.19.27-.58.01-.78-.35-.27-.7-.55-1.02-.8-.77-.66-1.54-1.29-2.28-1.99Z"/>
          <path class="cls-8" d="M23.24,39.68c-1.9-1.79-4.88-2.61-6.7-1.68-.32.16-.36.61-.06.82.02.02.04.03.05.03.54.38,1.06.78,1.55,1.23.85.73,1.69,1.44,2.51,2.2.74.7,1.42,1.43,2.12,2.16.26.29.54.61.82.93.21.25.6.22.78-.06,1.04-1.68.85-3.85-1.06-5.64Z"/>
        </g>
        <circle class="cls-11" cx="41.8" cy="14.99" r="1.31"/>
        <circle class="cls-11" cx="8.26" cy="41.31" r="1.31"/>
        <circle class="cls-9" cx="30.1" cy="34.64" r="1.31"/>
        <circle class="cls-9" cx="20.53" cy="53.39" r="1.31"/>
        <circle class="cls-11" cx="51.26" cy="36.02" r="1.31"/>
        <path class="cls-8" d="M44.59,52.79c0-1.14-.92-2.07-2.07-2.07-.22,0-.43.04-.62.1,0-1.14-.93-2.06-2.07-2.06s-2.06.92-2.07,2.06c-.2-.06-.4-.1-.62-.1-1.14,0-2.07.92-2.07,2.07,0,.91.6,1.68,1.42,1.95-.25.34-.4.75-.4,1.21,0,1.14.92,2.07,2.07,2.07.68,0,1.29-.34,1.66-.85.38.51.98.85,1.66.85,1.14,0,2.07-.92,2.07-2.07,0-.45-.15-.87-.39-1.21.82-.27,1.42-1.04,1.42-1.95ZM39.84,54.9c-.59,0-1.08-.48-1.08-1.07s.48-1.08,1.08-1.08,1.08.48,1.08,1.08-.48,1.07-1.08,1.07Z"/>
        <text class="cls-10" transform="translate(10.44 72.92)"><tspan x="0" y="0">ORGANIC CAFE</tspan></text>
        <text class="cls-6" transform="translate(27.31 109.46)"><tspan x="0" y="0">Mii</tspan></text>
      </g>
    </g>
  </g>
</svg>