<?xml version="1.0" encoding="UTF-8"?>
<svg xmlns="http://www.w3.org/2000/svg" version="1.1" viewBox="0 0 182.2 247.2">
  <defs>
    <style>
      .cls-1, .cls-2 {
        fill: #f0bf5e;
      }

      .cls-3, .cls-4, .cls-5, .cls-6, .cls-2, .cls-7 {
        stroke-miterlimit: 10;
      }

      .cls-3, .cls-6 {
        fill: none;
      }

      .cls-3, .cls-7 {
        stroke: #4b5636;
      }

      .cls-8 {
        isolation: isolate;
      }

      .cls-9 {
        fill: #243d1e;
      }

      .cls-4 {
        fill: #eeb033;
        stroke: #e7b463;
      }

      .cls-10 {
        fill: #e5ab39;
      }

      .cls-11, .cls-7 {
        fill: #4b5636;
      }

      .cls-5 {
        fill: #e7b463;
        stroke: #eca740;
      }

      .cls-6, .cls-2 {
        stroke: #f0bf5e;
      }

      .cls-12 {
        fill: #f1c05f;
      }
    </style>
  </defs>
  <!-- Generator: Adobe Illustrator 28.7.1, SVG Export Plug-In . SVG Version: 1.2.0 Build 142)  -->
  <g>
    <g id="_レイヤー_1" data-name="レイヤー_1">
      <path class="cls-6" d="M61.5,24.2h9.3"/>
      <path class="cls-7" d="M1.2,120.8c-6.1,26.2,25.7,68.1,78.2,67.6,47.7-.5,77.9-37.4,83.4-59.9.6-2.3.9-4.4.9-6.3.3-10.9-41.4,4.5-83.7,4.8-39.2.2-73.2-15.4-78.8-6.2h0Z"/>
      <path class="cls-7" d="M159.4,138c6.1-6.1,18.2-1.8,12.9,9.3-10.4,13.1-15.9.8-24.4,8.5-6.4,4.9-6.9,16.2-.3,24.8,6.6,8.6,16.7-5.6,12.1-8.3-13.9-6.8-8.1-13.4-1-12.1,12.6.8,16.7-2.5,21.2-10.1,6.1-14.1-4.3-27.7-17.1-21.6"/>
      <path class="cls-4" d="M57.2,29c0-1.4,0-2.8-.2-4.1C32,29.1,9.4,61.9,10.7,60.3c6.9,4.7,23.3,1,30.5-4.1,7.2-5.1,15.7-15.6,16-27.2h0Z"/>
      <path class="cls-2" d="M7.1,65.9c-1.8,2.1-3.5,8.4-3.5,8.4"/>
      <line class="cls-6" x1="16.4" y1="67" x2="15.4" y2="73.4"/>
      <line class="cls-6" x1="29.4" y1="65.2" x2="31.1" y2="71.5"/>
      <line class="cls-6" x1="39.9" y1="61.4" x2="43.3" y2="67"/>
      <line class="cls-6" x1="48.5" y1="55" x2="53.1" y2="59.7"/>
      <line class="cls-6" x1="54.8" y1="48.5" x2="60.6" y2="51.7"/>
      <line class="cls-6" x1="60.6" y1="33.2" x2="67.1" y2="33.1"/>
      <line class="cls-6" x1="59.2" y1="41.3" x2="65.7" y2="42.1"/>
      <path class="cls-5" d="M163.5,120.8c4.2-25.1,1.6-66.6-47.8-92.2,0,0-2.2-.7-1.3,1s14.1,12.6,13,14.1c-1.2,1.4-15.7-1.8-15.7,0s21.7,4,21.2,6.4c-.5,2.4-12.8,6.5-10.1,8,2.7,1.5,11.1-6.2,12.6-5,1.5,1.2,26.8,26,15.9,64.9"/>
      <path class="cls-3" d="M115.8,28.6c-4.7-3.7-17-4.6-19.3-4.4-7.2.7-14.3,10.1-1.2,13.8-7.3,5.7-3.2,12.9,5.6,12-4.7,8.5,1.5,15.8,9.9,12.4-.3,9,8.1,10.1,12.6,4.5,3.5,8.6,9.9,6.1,12.3,2,4,5.3,10.4,6.1,11.2.3"/>
      <g>
        <path class="cls-1" d="M58.5,85.4l-2,4.1c-.1.3-.4.4-.7.2h-.1c-.3-.2-.4-.5-.2-.8l2-4.1c.3-.7,0-1.1-.5-1.3s-1-.2-1.3.4l-2,4.1c-.1.3-.4.4-.7.2h-.1c-.3-.2-.4-.5-.2-.8l2-4.1c.6-1.2-1.2-2-1.7-.8l-1.9,3.9c-1.1,2.2-.8,3-.3,4.1.4.9.9,1.5.2,2.8l-4.2,8.7,2.1,1,4.2-8.7c.7-1.3,1.4-1.4,2.3-1.6,1.2-.3,2-.6,3-2.8l1.9-3.9c.6-1.2-1.1-2.1-1.7-.8h0Z"/>
        <path class="cls-1" d="M65,89.1c-1,1-3.7,3.3-5,5.8-2,3.9.7,4.5-.5,7.1l-2.5,5.2,2.1,1h0s0,0,0,0c.2-.3,2.2-4.5,4.2-8.7s4.1-8.4,4.4-9.2c.7-1.5-1-2.9-2.6-1.3h0Z"/>
      </g>
      <path class="cls-11" d="M84.7,49.8c0-.3-.2-.5-.2-.8-1.1-2.8-4.3-4.2-7.1-3-.7.3-1.3.7-1.9,1.2-1.4-.5-2.9-.5-4.4,0-3,1.2-4.5,4.4-3.7,7.4-1.6,1.6-2.2,4.2-1.3,6.5,1.2,3.1,4.7,4.6,7.8,3.3.6-.2,1.1-.5,1.5-.9,1.1.8,3.7,3.1,4.9,6.8l5.5-2.2s-1.5-2.9-1.7-8.5c.7,0,1.5,0,2.2-.3,2.6-1,3.8-3.9,2.8-6.5-.8-1.9-2.5-3-4.4-3.1h0ZM76.9,62.7c.5.1,1.1.1,1.6,0l.9,2.1-2.5-2.1ZM82.1,65.1l-1.6-2.9c.5-.3.9-.6,1.2-1,0,0,.4,3.9.4,3.9Z"/>
      <g>
        <path class="cls-11" d="M147,92.7l.6-1.5-1-.4-1-.4-.6,1.5c-.7,1.3-3.4-.4-5,1.9-1.5,2.1-2.2,2.5-2.2,2.5,0,0,2.9,1,4.1-.2,0,0-.2,2.1,1.2,3.3,1.8.1,3.2-1.4,3.2-1.4.1,1.9,2.7,3.1,2.7,3.1,0,0-.3-.8.2-3.3.5-2.7-2.7-3.7-2.1-4.9h0Z"/>
        <path class="cls-11" d="M145.7,99.9c-.9.5-1.8.7-2.7.7-.3,0-.6-.1-.8-.3-.8-.7-1.2-1.7-1.4-2.5-1,.1-1.6.2-2.2,0-1.8,1.9-5.7,3.7-7.6,4.8-5.7,3.2-6.1,8.7-3.3,11.6,2.4,2.4,6.4,3.5,11.9-.5,4.4-3.2,6.4-9.3,7.3-12.2-.5-.3-.8-.7-1.3-1.4h0ZM128.1,111.2c-.7-6,5.8-7.1,5.8-7.1,0,0-4.3,3.8-5.8,7.1Z"/>
      </g>
      <g>
        <path class="cls-1" d="M113.9,101.5l-1.2.4,2.2,2.3c.3.3.3.8.1,1.1-.2.3-.5.4-.8.4s-.2,0-.3,0l-5.2-1.6-1.6,2.2c-.2.2-.4.4-.8.4s-.6-.1-.8-.4l-1.6-2.2-5.2,1.6c0,0-.2,0-.3,0-.3,0-.6-.2-.8-.4-.2-.4-.2-.8.1-1.1l2.2-2.3-1.2-.4c-1.9,1.9-3.1,4.6-3.1,7.6,0,5.9,4.8,10.7,10.7,10.7s10.7-4.8,10.7-10.7-1.2-5.6-3.1-7.6h0ZM99.3,111.2c-.3.1-.6,0-.8-.3-.2-.5-.4-1.1-.4-1.8s.1-1.1.3-1.6c.1-.3.5-.4.8-.3.3.1.4.5.3.8-.2.4-.2.8-.2,1.2s0,.9.3,1.3c.1.3,0,.6-.3.8h0Z"/>
        <path class="cls-1" d="M97.3,100l4,1.3c0,0,.2,0,.2.2,0,0,0,.2,0,.2l-2.2,2.3c0,0,0,.2,0,.3,0,0,.2.2.3.1l4.7-1.5c.1,0,.2,0,.3,0l1.7,2.3c0,0,.1.1.2.1s.2,0,.2-.1l1.7-2.3c0,0,.2-.1.3,0l4.7,1.5c.1,0,.2,0,.3-.1,0,0,0-.2,0-.3l-2.2-2.3c0,0,0-.2,0-.2,0,0,0-.2.2-.2l4-1.3c.1,0,.2-.2.2-.3,0-.1,0-.2-.2-.2l-4.2-.7c0,0-.2,0-.2-.2s0-.2,0-.3l1-1.4c0,0,0-.2,0-.3,0,0-.2-.1-.3,0l-3.4,1c0,0-.2,0-.3,0l-1.4-1.7c0,0-.1,0-.2,0s-.2,0-.2,0l-1.4,1.7c0,0-.2.1-.3,0l-3.4-1c-.1,0-.2,0-.3,0s0,.2,0,.3l1,1.4c0,0,0,.2,0,.3,0,0-.1.2-.2.2l-4.2.7c-.1,0-.2.1-.2.2,0,.1,0,.2.2.3h0Z"/>
      </g>
      <path class="cls-1" d="M6.7,96.1c-.2.2-.4.3-.7.4-.2-.4-.5-.8-.7-1.1-.4-.6-.8-1.3-1.1-1.9-.2.2-.5.4-.7.6-.1.1-.3.2-.4.3.4.6.9,1.2,1.3,1.9.2.3.4.5.6.8,0,0,0,.1.2.2,0,0-.1.1-.2.2-.3-.3-.6-.6-.9-.9-.2-.2-.4-.4-.7-.7-.3-.3-.6-.6-1-1-.2.2-.5.4-.7.6.3.3.7.7,1,1,.2.2.4.4.6.6,0,0,0,0,.1.1,0,0-.1,0-.2-.1-.6-.5-1.3-.9-1.9-1.3-.2.2-.4.3-.6.5.6.4,1.2.8,1.8,1.3.4.3.8.6,1.2.9-.3.3-.5.6-.5.6-1.8,2-.8,4.5,1.2,6,1.4,1.1,12.1,9.7,16.1,11.6,2.8,1.3,2.6-.6,2.2-1.8-.8-2.2-8.7-14.5-10.7-17-1.8-2.2-3.6-3-5.6-1.7h0Z"/>
      <g>
        <path class="cls-11" d="M80.7,87.2c.3-1.7.8-3.3,1.2-5,.2-1,.5-2,.8-2.9h0c.2-.5-.3-1.1-.8-1-3.1.5-6.1,4.2-6.9,8.1-.8,4,.9,6.9,3.7,8.1.5.2,1-.1,1-.6,0-.7.1-1.4.2-2,.2-1.6.4-3.1.7-4.6Z"/>
        <path class="cls-11" d="M89.1,89.2c.8-3.9-.6-8.5-3.3-10.1-.5-.3-1.1,0-1.1.6h0c0,1.1-.2,2.1-.3,3.1-.3,1.7-.5,3.4-.8,5.1-.3,1.5-.7,3-1.1,4.5-.2.6-.3,1.2-.6,1.8-.2.5.2,1,.7,1,3.1,0,5.7-2,6.5-6Z"/>
      </g>
      <g>
        <path class="cls-11" d="M121.3,84.3c-.4-1.6-.8-3.3-1.1-4.9-.2-1-.4-1.9-.5-2.9h0c0-.6-.7-.8-1.1-.5-2.5,1.8-3.6,6.3-2.6,10.1,1,3.8,3.7,5.6,6.7,5.4.5,0,.8-.5.6-1-.2-.6-.5-1.3-.7-1.8-.5-1.4-.9-2.9-1.3-4.4h0Z"/>
        <path class="cls-11" d="M129.5,82.5c-1-3.8-4.2-7.2-7.2-7.5-.5,0-.9.5-.7,1,0,0,0,0,0,0,.4.9.7,1.8,1,2.8.5,1.6,1,3.2,1.4,4.8.4,1.5.7,3,1,4.4,0,.6.2,1.2.3,1.8,0,.5.6.8,1,.5,2.7-1.3,4.1-4.2,3.1-8.1h0Z"/>
      </g>
      <g>
        <path class="cls-11" d="M32.3,90.8c-1.7-1.6-3.3-3.3-4.9-4.9-1-1-1.9-2-2.7-3.1h0c-.5-.6-1.4-.5-1.7.2-1.7,3.9.4,10,4.3,13.7,4,3.7,8.5,3.9,11.9,1.5.5-.4.6-1.2,0-1.6-.7-.6-1.5-1.1-2.1-1.7-1.6-1.4-3.2-2.7-4.8-4.1h0Z"/>
        <path class="cls-11" d="M40.6,82.6c-4-3.7-10.2-5.4-14-3.5-.7.3-.7,1.3-.1,1.7,0,0,0,0,.1,0,1.1.8,2.2,1.6,3.2,2.6,1.8,1.5,3.5,3,5.2,4.6,1.5,1.4,3,3,4.4,4.5.5.6,1.1,1.3,1.7,1.9.4.5,1.3.4,1.6-.1,2.2-3.5,1.8-8-2.2-11.8h0Z"/>
      </g>
      <circle class="cls-1" cx="79.2" cy="31.2" r="2.7"/>
      <circle class="cls-1" cx="9.4" cy="86" r="2.7"/>
      <circle class="cls-12" cx="54.8" cy="72.1" r="2.7"/>
      <circle class="cls-12" cx="34.9" cy="111.2" r="2.7"/>
      <circle class="cls-1" cx="98.9" cy="75" r="2.7"/>
      <path class="cls-11" d="M85,109.9c0-2.4-1.9-4.3-4.3-4.3s-.9,0-1.3.2c0-2.4-1.9-4.3-4.3-4.3s-4.3,1.9-4.3,4.3c-.4-.1-.8-.2-1.3-.2-2.4,0-4.3,1.9-4.3,4.3s1.2,3.5,3,4.1c-.5.7-.8,1.6-.8,2.5,0,2.4,1.9,4.3,4.3,4.3s2.7-.7,3.5-1.8c.8,1.1,2,1.8,3.5,1.8,2.4,0,4.3-1.9,4.3-4.3s-.3-1.8-.8-2.5c1.7-.6,3-2.2,3-4.1h0ZM75.1,114.3c-1.2,0-2.2-1-2.2-2.2s1-2.2,2.2-2.2,2.2,1,2.2,2.2-1,2.2-2.2,2.2Z"/>
      <g class="cls-8">
        <g class="cls-8">
          <path class="cls-10" d="M17,151.2c-.8-.6-1.5-1.3-1.9-2.3s-.6-2.2-.6-3.5.3-2.5.8-3.6c.5-1,1.2-1.8,2.1-2.4.9-.6,1.9-.8,3-.8,1.8,0,3.2.6,4.2,1.7,1,1.2,1.5,2.8,1.5,4.8s-.3,2.6-.8,3.6c-.5,1-1.2,1.9-2.2,2.4-.9.6-1.9.9-3.1.9s-2.2-.3-3.1-.8ZM17.6,140.9c-.7,1-1,2.5-1,4.4s.3,3.2,1,4.2c.6,1,1.5,1.5,2.7,1.5s2-.5,2.7-1.5c.7-1,1-2.5,1-4.4s-.3-3.2-1-4.2c-.6-1-1.5-1.5-2.7-1.5s-2,.5-2.7,1.5Z"/>
          <path class="cls-10" d="M27.5,150.9l1.5-.2v-11l-1.4-.2v-.9h2.3c.3,0,.8,0,1.3,0,.6,0,1.1,0,1.4,0,1.7,0,3,.3,3.7.8s1.1,1.4,1.1,2.6-.2,1.6-.7,2.3c-.5.7-1.1,1.2-1.9,1.4.4.2.7.5,1.1,1,.3.5.7,1.2,1.2,2,.4.7.6,1.1.8,1.5.2.3.4.5.6.5l.7.2v.9h-2.4c-.2,0-.4-.2-.6-.6-.2-.4-.5-1-.9-1.9-.4-.9-.8-1.7-1.1-2.2-.3-.5-.6-.9-.9-1.1-1.3,0-2,0-2.2,0v4.7l1.8.2v.9h-5.1v-.9ZM34.8,144.3c.4-.5.7-1.2.7-2.2s-.2-1.5-.7-2c-.4-.5-1.2-.7-2.3-.7s-.8,0-1.1,0c-.2,0-.4,0-.5,0v5.5c.2,0,.5,0,1.1,0h1c.8,0,1.4-.2,1.8-.7Z"/>
          <path class="cls-10" d="M42.8,151.2c-.9-.6-1.6-1.3-2.1-2.3s-.7-2.1-.7-3.4.3-2.7.9-3.7c.6-1,1.4-1.8,2.4-2.4,1-.5,2.2-.8,3.5-.8s2.6.2,4.1.5l-.2,3.1h-1.3l-.4-2.1c-.2-.1-.4-.3-.8-.4-.4-.1-.9-.2-1.6-.2s-1.6.2-2.3.6c-.7.4-1.2,1.1-1.5,1.9-.4.8-.6,1.9-.6,3s.2,2.1.5,3c.3.9.8,1.6,1.4,2.2.6.5,1.4.8,2.3.8s1.1,0,1.6-.2.9-.3,1.2-.5v-3.9l-2.2-.2v-1h5.2v1l-1,.2v4.8c-.3,0-.7.1-1.3.3-.6.2-1.2.3-1.7.4-.5.1-1.1.2-1.8.2-1.3,0-2.4-.3-3.3-.8Z"/>
          <path class="cls-10" d="M57.4,138.6h1.9l4.3,12.2,1.1.2v.9h-4.7v-.9l1.5-.2-.8-2.6h-5.2l-.8,2.6,1.5.2v.9h-4.2v-.9l1.1-.2,4.3-12.2ZM58.5,141.4l-.4-1.6-.4,1.6-1.8,5.7h4.5l-1.9-5.7Z"/>
          <path class="cls-10" d="M66.8,139.8l-1.4-.2v-.9h3.3l5.9,8.6,1,1.9v-9.4l-1.5-.2v-.9h4.2v.9l-1.4.2v12.1h-1.4l-6-8.8-1.4-2.3v10.1l1.7.2v.9h-4.3v-.9l1.4-.2v-11Z"/>
          <path class="cls-10" d="M81.2,139.8l-1.6-.2v-.9h5.2v.9l-1.6.2v11l1.6.2v.8h-5.2v-.9l1.6-.2v-11Z"/>
          <path class="cls-10" d="M89.1,151.2c-.9-.6-1.6-1.3-2.1-2.4-.5-1-.7-2.2-.7-3.6s.3-2.5.8-3.5,1.3-1.8,2.3-2.4c1-.6,2.1-.8,3.3-.8s2,.1,3.3.4h.6c0,.1-.2,3.3-.2,3.3h-1.2l-.4-2.2c-.2-.1-.5-.3-.9-.4-.4,0-.9-.2-1.5-.2s-1.4.2-2,.6c-.6.4-1.1,1.1-1.4,1.9s-.5,1.8-.5,3,.1,2.1.4,3c.3.9.7,1.6,1.3,2.2.6.5,1.3.8,2.2.8s1.1,0,1.4-.2c.3-.1.6-.3.9-.5l.7-1.7h1.1c0,.1-.4,2.7-.4,2.7-.2,0-.6,0-1.1.2-.4.1-.8.2-1.2.3-.4,0-.9.1-1.5.1-1.3,0-2.4-.3-3.3-.8Z"/>
          <path class="cls-10" d="M104.9,151.2c-.9-.6-1.6-1.3-2.1-2.4-.5-1-.7-2.2-.7-3.6s.3-2.5.8-3.5,1.3-1.8,2.3-2.4c1-.6,2.1-.8,3.3-.8s2,.1,3.3.4h.6c0,.1-.2,3.3-.2,3.3h-1.2l-.4-2.2c-.2-.1-.5-.3-.9-.4-.4,0-.9-.2-1.5-.2s-1.4.2-2,.6c-.6.4-1.1,1.1-1.4,1.9-.3.8-.5,1.8-.5,3s.1,2.1.4,3c.3.9.7,1.6,1.3,2.2.6.5,1.3.8,2.2.8s1.1,0,1.4-.2c.3-.1.6-.3.9-.5l.7-1.7h1.1c0,.1-.4,2.7-.4,2.7-.2,0-.6,0-1.1.2-.4.1-.8.2-1.2.3-.4,0-.9.1-1.5.1-1.3,0-2.4-.3-3.3-.8Z"/>
          <path class="cls-10" d="M118.2,138.6h1.9l4.3,12.2,1.1.2v.9h-4.7v-.9l1.5-.2-.8-2.6h-5.2l-.8,2.6,1.5.2v.9h-4.2v-.9l1.1-.2,4.3-12.2ZM119.3,141.4l-.4-1.6-.4,1.6-1.8,5.7h4.5l-1.9-5.7Z"/>
          <path class="cls-10" d="M127.6,139.8l-1.5-.2v-.9h9.5l.2,3h-1.2l-.5-2h-4.5c0-.1,0,5,0,5h3.2c0,0,.3-1.5.3-1.5h.9v4.1h-.9l-.3-1.5h-3.2c0,0,0,5,0,5l2.8.2v.9h-6.1v-.9l1.4-.2v-11Z"/>
          <path class="cls-10" d="M138.6,139.8l-1.5-.2v-.9h9l.2,2.7h-1l-.5-1.7h-4.4c0-.1,0,4.9,0,4.9h3c0,0,.2-1.5.2-1.5h1v4.1h-1l-.2-1.5h-3c0,0,0,5.2,0,5.2l5-.2.9-2.2,1,.3-.5,3.1h-9.8v-.9l1.5-.2v-11Z"/>
        </g>
      </g>
      <g class="cls-8">
        <g class="cls-8">
          <path class="cls-9" d="M90.4,205.5c-.5.7-1.1,1.6-1.7,2.6-.6,1-1.3,2.2-2,3.4-.6,1.1-1.2,2.2-1.7,3.4-.6,1.2-1.1,2.4-1.6,3.5-.5,1.2-1,2.3-1.4,3.3-.4,1.1-.8,2-1.1,2.8s-.6,1.5-.8,2c-.2.5-.3.7-.3.8-.1.3-.3.4-.6.4s-.3,0-.4-.1c-.1,0-.2-.2-.2-.4,0,0,0-.3-.2-.7-.1-.5-.3-1.1-.4-1.9-.2-.8-.4-1.7-.6-2.8-.2-1-.5-2.1-.7-3.3-.3-1.1-.5-2.3-.8-3.5-.3-1.2-.5-2.3-.7-3.3-.8,2.2-1.6,4.1-2.3,5.8s-1.6,3.1-2.4,4.4c-.8,1.2-1.7,2.3-2.5,3.1-.9.8-1.8,1.5-2.7,2-1,.5-2,.9-3,1.1-1,.2-2.2.3-3.3.3s-1.2,0-1.9-.2c-.7-.1-1.4-.3-2-.6-.7-.3-1.3-.6-1.9-1-.6-.4-1.2-.9-1.6-1.5-.5-.6-.9-1.2-1.1-1.9-.3-.7-.4-1.5-.4-2.4s.2-1.8.6-2.6c.4-.8.9-1.5,1.6-2,.7-.6,1.4-1,2.3-1.3.9-.3,1.8-.5,2.8-.5s1.4,0,1.9.2c.6.1,1.1.3,1.5.5.4.2.8.4,1.1.6.3.2.6.4.8.6.2.2.4.3.5.5,0,.1.1.2.2.2,0,.1.1.2.1.4s0,.3-.2.5-.3.2-.5.2-.4,0-.6-.3c0,0-.1-.1-.3-.3-.2-.2-.5-.4-.8-.7-.4-.2-.9-.5-1.5-.7-.6-.2-1.4-.3-2.3-.3s-1.6.1-2.3.4-1.4.6-1.9,1c-.5.5-1,1-1.3,1.6-.3.6-.5,1.3-.5,2s.1,1.4.4,2c.2.6.6,1.1,1,1.6.4.5.9.9,1.4,1.2.5.3,1.1.6,1.7.9.6.2,1.2.4,1.7.5.6.1,1.1.2,1.7.2.9,0,1.7,0,2.6-.2.8-.1,1.7-.4,2.5-.8s1.6-.9,2.4-1.5c.8-.6,1.6-1.5,2.3-2.5s1.5-2.3,2.3-3.8c.8-1.5,1.5-3.2,2.3-5.2.2-.6.5-1.2.7-1.9.2-.7.4-1.4.7-2.1-.2-1-.3-1.9-.4-2.6,0-.7-.1-1.3-.1-1.8s0-.9.1-1.2.2-.5.3-.7c.1-.2.3-.3.4-.3.2,0,.3,0,.4,0s.2,0,.4,0c.1,0,.3.1.4.3.1.2.2.4.3.7,0,.3.1.7.1,1.2s0,1.2-.2,1.9-.3,1.5-.5,2.4c.1.7.3,1.5.5,2.4.2.9.4,1.8.6,2.7.2.9.4,1.9.6,2.9.2,1,.4,1.9.6,2.8.2.9.4,1.8.6,2.7.2.8.4,1.6.5,2.3.3-.8.7-1.7,1.1-2.9s1-2.3,1.5-3.6,1.1-2.5,1.8-3.8c.6-1.3,1.3-2.5,1.9-3.7.9-1.6,1.8-3.1,2.5-4.2.8-1.2,1.4-2.1,2-2.9.6-.8,1-1.3,1.3-1.7.3-.4.5-.6.5-.6.1-.1.3-.2.5-.2s.4,0,.5.2c.1.1.2.3.2.5s0,.2,0,.2c0,0,0,.2-.2.5-.1.3-.3.8-.5,1.4-.2.6-.4,1.2-.7,2-.2.8-.5,1.6-.7,2.5-.2.9-.4,1.8-.6,2.8-.2,1-.3,1.9-.4,2.9,0,.4,0,.9,0,1.4,0,.5,0,1,0,1.4,0,.8,0,1.5.1,2.3,0,.8.2,1.5.3,2.2s.4,1.4.7,2c.3.6.6,1.2,1,1.7.4.5.9.9,1.4,1.1.6.3,1.2.4,2,.5.2,0,.3,0,.4.2.1.1.2.3.2.5s0,.3-.2.4-.3.2-.5.2-.4,0-.6,0c-.8-.1-1.6-.4-2.2-.7-.6-.4-1.2-.8-1.6-1.4-.5-.5-.8-1.2-1.2-1.8-.3-.7-.6-1.4-.7-2.2s-.3-1.6-.4-2.5c0-.8-.1-1.7-.1-2.6s0-2.1.2-3.1c.1-1,.2-2,.4-3s.4-1.9.6-2.8c.2-.9.5-1.8.7-2.5Z"/>
          <path class="cls-9" d="M99.8,214.3c0,.4-.2.8-.5,1.1-.3.3-.7.5-1.1.5s-.8-.2-1.1-.5c-.3-.3-.5-.7-.5-1.1s0-.4.1-.6c0-.2.2-.4.3-.5.1-.1.3-.3.5-.3.2,0,.4-.1.6-.1s.4,0,.6.1.4.2.5.3.3.3.3.5c0,.2.1.4.1.6ZM96.9,224.4c0-1.7.1-3.3.3-5,0-.2,0-.3.2-.4s.3-.2.5-.2.3,0,.4.2c.1.1.2.3.2.5s0,.3,0,.6c0,.3,0,.8-.1,1.2,0,.5,0,1-.1,1.5,0,.5,0,1,0,1.5s0,1.1.2,1.5c.1.4.3.7.5.9.2.2.4.3.6.4s.4.1.6.1c.3,0,.7-.1,1-.3.3-.2.7-.6,1.1-1,.4-.4.7-.9,1.1-1.5s.7-1.2,1.1-2c0-.1.1-.2.2-.3.1,0,.2,0,.3,0,.2,0,.3,0,.5.2.1.1.2.3.2.5s0,.2,0,.3c-.1.3-.3.6-.5,1-.2.4-.4.8-.7,1.2-.3.4-.6.8-.9,1.2-.3.4-.7.8-1,1.1-.4.3-.7.6-1.1.8-.4.2-.8.3-1.2.3s-1-.1-1.4-.3c-.4-.2-.7-.5-1-.9s-.5-.8-.6-1.3-.2-1-.2-1.6ZM98.8,214.3c0-.2,0-.3-.2-.4-.1-.1-.3-.2-.4-.2s-.3,0-.4.2c-.1.1-.2.3-.2.4s0,.3.2.4.3.2.4.2.3,0,.4-.2c.1-.1.2-.3.2-.4Z"/>
          <path class="cls-9" d="M107.2,214.3c0,.4-.2.8-.5,1.1-.3.3-.7.5-1.1.5s-.8-.2-1.1-.5c-.3-.3-.5-.7-.5-1.1s0-.4.1-.6c0-.2.2-.4.3-.5.1-.1.3-.3.5-.3.2,0,.4-.1.6-.1s.4,0,.6.1.4.2.5.3.3.3.3.5c0,.2.1.4.1.6ZM104.4,224.4c0-1.7.1-3.3.3-5,0-.2,0-.3.2-.4s.3-.2.5-.2.3,0,.4.2c.1.1.2.3.2.5s0,.3,0,.6c0,.3,0,.8-.1,1.2,0,.5,0,1-.1,1.5,0,.5,0,1,0,1.5s0,1.1.2,1.5c.1.4.3.7.5.9.2.2.4.3.6.4s.4.1.6.1c.3,0,.7-.1,1-.3.3-.2.7-.6,1.1-1,.4-.4.7-.9,1.1-1.5s.7-1.2,1.1-2c0-.1.1-.2.2-.3.1,0,.2,0,.3,0,.2,0,.3,0,.5.2.1.1.2.3.2.5s0,.2,0,.3c-.1.3-.3.6-.5,1-.2.4-.4.8-.7,1.2-.3.4-.6.8-.9,1.2-.3.4-.7.8-1,1.1-.4.3-.7.6-1.1.8-.4.2-.8.3-1.2.3s-1-.1-1.4-.3c-.4-.2-.7-.5-1-.9s-.5-.8-.6-1.3-.2-1-.2-1.6ZM106.2,214.3c0-.2,0-.3-.2-.4-.1-.1-.3-.2-.4-.2s-.3,0-.4.2c-.1.1-.2.3-.2.4s0,.3.2.4.3.2.4.2.3,0,.4-.2c.1-.1.2-.3.2-.4Z"/>
        </g>
        <g class="cls-8">
          <path class="cls-3" d="M90.4,205.5c-.5.7-1.1,1.6-1.7,2.6-.6,1-1.3,2.2-2,3.4-.6,1.1-1.2,2.2-1.7,3.4-.6,1.2-1.1,2.4-1.6,3.5-.5,1.2-1,2.3-1.4,3.3-.4,1.1-.8,2-1.1,2.8s-.6,1.5-.8,2c-.2.5-.3.7-.3.8-.1.3-.3.4-.6.4s-.3,0-.4-.1c-.1,0-.2-.2-.2-.4,0,0,0-.3-.2-.7-.1-.5-.3-1.1-.4-1.9-.2-.8-.4-1.7-.6-2.8-.2-1-.5-2.1-.7-3.3-.3-1.1-.5-2.3-.8-3.5-.3-1.2-.5-2.3-.7-3.3-.8,2.2-1.6,4.1-2.3,5.8s-1.6,3.1-2.4,4.4c-.8,1.2-1.7,2.3-2.5,3.1-.9.8-1.8,1.5-2.7,2-1,.5-2,.9-3,1.1-1,.2-2.2.3-3.3.3s-1.2,0-1.9-.2c-.7-.1-1.4-.3-2-.6-.7-.3-1.3-.6-1.9-1-.6-.4-1.2-.9-1.6-1.5-.5-.6-.9-1.2-1.1-1.9-.3-.7-.4-1.5-.4-2.4s.2-1.8.6-2.6c.4-.8.9-1.5,1.6-2,.7-.6,1.4-1,2.3-1.3.9-.3,1.8-.5,2.8-.5s1.4,0,1.9.2c.6.1,1.1.3,1.5.5.4.2.8.4,1.1.6.3.2.6.4.8.6.2.2.4.3.5.5,0,.1.1.2.2.2,0,.1.1.2.1.4s0,.3-.2.5-.3.2-.5.2-.4,0-.6-.3c0,0-.1-.1-.3-.3-.2-.2-.5-.4-.8-.7-.4-.2-.9-.5-1.5-.7-.6-.2-1.4-.3-2.3-.3s-1.6.1-2.3.4-1.4.6-1.9,1c-.5.5-1,1-1.3,1.6-.3.6-.5,1.3-.5,2s.1,1.4.4,2c.2.6.6,1.1,1,1.6.4.5.9.9,1.4,1.2.5.3,1.1.6,1.7.9.6.2,1.2.4,1.7.5.6.1,1.1.2,1.7.2.9,0,1.7,0,2.6-.2.8-.1,1.7-.4,2.5-.8s1.6-.9,2.4-1.5c.8-.6,1.6-1.5,2.3-2.5s1.5-2.3,2.3-3.8c.8-1.5,1.5-3.2,2.3-5.2.2-.6.5-1.2.7-1.9.2-.7.4-1.4.7-2.1-.2-1-.3-1.9-.4-2.6,0-.7-.1-1.3-.1-1.8s0-.9.1-1.2.2-.5.3-.7c.1-.2.3-.3.4-.3.2,0,.3,0,.4,0s.2,0,.4,0c.1,0,.3.1.4.3.1.2.2.4.3.7,0,.3.1.7.1,1.2s0,1.2-.2,1.9-.3,1.5-.5,2.4c.1.7.3,1.5.5,2.4.2.9.4,1.8.6,2.7.2.9.4,1.9.6,2.9.2,1,.4,1.9.6,2.8.2.9.4,1.8.6,2.7.2.8.4,1.6.5,2.3.3-.8.7-1.7,1.1-2.9s1-2.3,1.5-3.6,1.1-2.5,1.8-3.8c.6-1.3,1.3-2.5,1.9-3.7.9-1.6,1.8-3.1,2.5-4.2.8-1.2,1.4-2.1,2-2.9.6-.8,1-1.3,1.3-1.7.3-.4.5-.6.5-.6.1-.1.3-.2.5-.2s.4,0,.5.2c.1.1.2.3.2.5s0,.2,0,.2c0,0,0,.2-.2.5-.1.3-.3.8-.5,1.4-.2.6-.4,1.2-.7,2-.2.8-.5,1.6-.7,2.5-.2.9-.4,1.8-.6,2.8-.2,1-.3,1.9-.4,2.9,0,.4,0,.9,0,1.4,0,.5,0,1,0,1.4,0,.8,0,1.5.1,2.3,0,.8.2,1.5.3,2.2s.4,1.4.7,2c.3.6.6,1.2,1,1.7.4.5.9.9,1.4,1.1.6.3,1.2.4,2,.5.2,0,.3,0,.4.2.1.1.2.3.2.5s0,.3-.2.4-.3.2-.5.2-.4,0-.6,0c-.8-.1-1.6-.4-2.2-.7-.6-.4-1.2-.8-1.6-1.4-.5-.5-.8-1.2-1.2-1.8-.3-.7-.6-1.4-.7-2.2s-.3-1.6-.4-2.5c0-.8-.1-1.7-.1-2.6s0-2.1.2-3.1c.1-1,.2-2,.4-3s.4-1.9.6-2.8c.2-.9.5-1.8.7-2.5Z"/>
          <path class="cls-3" d="M99.8,214.3c0,.4-.2.8-.5,1.1-.3.3-.7.5-1.1.5s-.8-.2-1.1-.5c-.3-.3-.5-.7-.5-1.1s0-.4.1-.6c0-.2.2-.4.3-.5.1-.1.3-.3.5-.3.2,0,.4-.1.6-.1s.4,0,.6.1.4.2.5.3.3.3.3.5c0,.2.1.4.1.6ZM96.9,224.4c0-1.7.1-3.3.3-5,0-.2,0-.3.2-.4s.3-.2.5-.2.3,0,.4.2c.1.1.2.3.2.5s0,.3,0,.6c0,.3,0,.8-.1,1.2,0,.5,0,1-.1,1.5,0,.5,0,1,0,1.5s0,1.1.2,1.5c.1.4.3.7.5.9.2.2.4.3.6.4s.4.1.6.1c.3,0,.7-.1,1-.3.3-.2.7-.6,1.1-1,.4-.4.7-.9,1.1-1.5s.7-1.2,1.1-2c0-.1.1-.2.2-.3.1,0,.2,0,.3,0,.2,0,.3,0,.5.2.1.1.2.3.2.5s0,.2,0,.3c-.1.3-.3.6-.5,1-.2.4-.4.8-.7,1.2-.3.4-.6.8-.9,1.2-.3.4-.7.8-1,1.1-.4.3-.7.6-1.1.8-.4.2-.8.3-1.2.3s-1-.1-1.4-.3c-.4-.2-.7-.5-1-.9s-.5-.8-.6-1.3-.2-1-.2-1.6ZM98.8,214.3c0-.2,0-.3-.2-.4-.1-.1-.3-.2-.4-.2s-.3,0-.4.2c-.1.1-.2.3-.2.4s0,.3.2.4.3.2.4.2.3,0,.4-.2c.1-.1.2-.3.2-.4Z"/>
          <path class="cls-3" d="M107.2,214.3c0,.4-.2.8-.5,1.1-.3.3-.7.5-1.1.5s-.8-.2-1.1-.5c-.3-.3-.5-.7-.5-1.1s0-.4.1-.6c0-.2.2-.4.3-.5.1-.1.3-.3.5-.3.2,0,.4-.1.6-.1s.4,0,.6.1.4.2.5.3.3.3.3.5c0,.2.1.4.1.6ZM104.4,224.4c0-1.7.1-3.3.3-5,0-.2,0-.3.2-.4s.3-.2.5-.2.3,0,.4.2c.1.1.2.3.2.5s0,.3,0,.6c0,.3,0,.8-.1,1.2,0,.5,0,1-.1,1.5,0,.5,0,1,0,1.5s0,1.1.2,1.5c.1.4.3.7.5.9.2.2.4.3.6.4s.4.1.6.1c.3,0,.7-.1,1-.3.3-.2.7-.6,1.1-1,.4-.4.7-.9,1.1-1.5s.7-1.2,1.1-2c0-.1.1-.2.2-.3.1,0,.2,0,.3,0,.2,0,.3,0,.5.2.1.1.2.3.2.5s0,.2,0,.3c-.1.3-.3.6-.5,1-.2.4-.4.8-.7,1.2-.3.4-.6.8-.9,1.2-.3.4-.7.8-1,1.1-.4.3-.7.6-1.1.8-.4.2-.8.3-1.2.3s-1-.1-1.4-.3c-.4-.2-.7-.5-1-.9s-.5-.8-.6-1.3-.2-1-.2-1.6ZM106.2,214.3c0-.2,0-.3-.2-.4-.1-.1-.3-.2-.4-.2s-.3,0-.4.2c-.1.1-.2.3-.2.4s0,.3.2.4.3.2.4.2.3,0,.4-.2c.1-.1.2-.3.2-.4Z"/>
        </g>
      </g>
    </g>
  </g>
</svg>