<?xml version="1.0" encoding="UTF-8"?>
<svg xmlns="http://www.w3.org/2000/svg" version="1.1" viewBox="0 0 284.37 68.65">
  <defs>
    <style>
      .cls-1 {
        fill: #1c2a53;
      }

      .cls-2 {
        fill: #8ac1b0;
      }

      .cls-3 {
        stroke: #8ac1b0;
      }

      .cls-3, .cls-4 {
        stroke-width: 5.27px;
      }

      .cls-3, .cls-4, .cls-5 {
        fill: none;
      }

      .cls-4, .cls-5 {
        stroke: #1c2a53;
      }

      .cls-5 {
        stroke-width: 3.16px;
      }
    </style>
  </defs>
  <!-- Generator: Adobe Illustrator 28.7.1, SVG Export Plug-In . SVG Version: 1.2.0 Build 142)  -->
  <g>
    <g id="_レイヤー_1" data-name="レイヤー_1">
      <g>
        <path class="cls-1" d="M80.16,38.67c-3.42,4.27-4.78,4.78-5.78,4.78-1.31,0-2.31-1.01-2.31-2.21,0-.6.25-1.21.85-1.76,4.83-4.43,9.35-10.91,11.77-17.75.4-1.11,1.26-1.56,2.16-1.56,1.36,0,2.82,1.06,2.82,2.46,0,1.61-4.53,9-4.68,9.25l-.6,29.42c-.05,1.46-1.26,2.21-2.51,2.21-1.16,0-2.31-.7-2.31-2.11v-.1l.6-22.63ZM91.47,61.7c-1.61,0-2.36-1.01-2.36-2.06s.85-2.26,2.36-2.26l9.71.05v-11.11l-5.68.05c-.85,1.46-4.73,7.75-7.64,7.75-1.41,0-2.51-1.01-2.51-2.21,0-.55.25-1.21.91-1.76,4.68-4.07,7.75-9.71,9.56-15.69l-6.39.05h-.05c-1.56,0-2.31-1.06-2.31-2.16s.8-2.31,2.36-2.31l7.44.05c.5-2.51.85-5.03,1.01-7.39.1-1.51,1.26-2.16,2.41-2.16,1.36,0,2.72.85,2.72,2.26,0,.05-.3,3.22-1.26,7.29l13.53-.05c1.56,0,2.36,1.11,2.36,2.21s-.8,2.26-2.36,2.26l-14.69-.05c-.8,2.67-1.76,5.23-2.87,7.64h15.29c1.61,0,2.41,1.06,2.41,2.16s-.8,2.11-2.41,2.11l-7.04-.05v11.11l9.81-.05c1.51,0,2.26,1.11,2.26,2.21s-.75,2.11-2.26,2.11h-24.29ZM169.94,45.15l-2.87-.1c1.36,1.26,2.92,2.41,4.68,3.37.7.35,1.01,1.01,1.01,1.61,0,1.11-.85,2.21-2.06,2.21-.85,0-1.66-.55-3.47-2.01-3.32,3.07-4.27,3.07-4.53,3.07-1.01,0-1.81-.85-1.81-1.66,0-.4.2-.85.65-1.16,1.01-.7,2.16-1.61,3.17-2.67-.85-.91-1.66-1.86-2.36-2.82h-7.9c-.7,1.11-1.51,2.16-2.36,3.17,2.62,1.76,2.82,2.67,2.82,3.17,0,1.06-.91,1.96-1.86,1.96-.45,0-.96-.2-1.36-.65-.7-.75-1.51-1.41-2.16-1.91-2.01,1.76-2.77,2.26-3.52,2.26-.55,0-1.06-.25-1.41-.65,0,1.71.05,4.17.05,5.48v.1c0,3.07-2.01,4.83-5.08,4.83-2.26,0-4.02-.65-4.02-2.36,0-.91.65-1.81,1.76-1.81.15,0,.3,0,.45.05.5.1.96.15,1.41.15.91,0,1.61-.35,1.66-1.66.05-1.36.05-3.62.05-6.19h-4.33c-.7,6.69-3.12,12.72-5.73,12.72-1.16,0-2.21-.96-2.21-2.01,0-.4.1-.75.4-1.11,3.42-4.33,4.02-11.17,4.02-17.7,0-2.97-.1-5.88-.15-8.5v-.15c0-3.32,2.21-3.97,5.63-3.97.8,0,1.51,0,2.21.05,2.41.15,3.87,1.76,3.87,4.12v15.34c.1-.15.3-.25.45-.35,1.96-1.26,3.57-2.72,4.93-4.33l-2.97.1h-.05c-1.11,0-1.66-.85-1.66-1.71,0-.8.55-1.66,1.66-1.66h.05l5.28.05c.55-.91,1.01-1.91,1.41-2.87l-5.23.05h-.05c-1.16,0-1.76-.8-1.76-1.61,0-.85.6-1.66,1.81-1.66h1.76l-.05-.1c-.75-1.46-1.41-2.11-1.81-2.62-.2-.25-.3-.55-.3-.8,0-.91,1.11-1.61,2.06-1.61,1.61,0,3.47,2.97,3.47,3.97,0,.4-.15.8-.45,1.16h1.61c.4-1.56.7-3.17.85-4.73.1-1.16,1.01-1.61,1.96-1.61,1.01,0,2.11.6,2.11,1.66,0,.4-.2,1.31-1.11,4.68h2.31c.55-1.16,1.01-2.21,1.76-4.22.25-.65.85-.96,1.56-.96,1.11,0,2.31.75,2.31,1.76,0,.4-.96,2.21-1.66,3.42h2.62c1.21,0,1.76.8,1.76,1.61s-.6,1.66-1.71,1.66h-.05l-5.03-.05c.5,1.01,1.11,1.96,1.76,2.87l5.73-.05h.05c1.16,0,1.76.85,1.76,1.66,0,.85-.6,1.71-1.76,1.71h-.05ZM159.53,26.8v.2c0,1.46-1.21,2.21-2.36,2.21s-2.16-.65-2.16-2.01v-.4h-7.85v1.26c0,1.46-1.21,2.21-2.41,2.21-1.11,0-2.21-.65-2.21-2.01v-1.46h-10.11c-1.56,0-2.36-1.06-2.36-2.06,0-1.06.8-2.06,2.36-2.06h10.11v-1.91c0-1.36,1.16-2.06,2.31-2.06s2.31.7,2.31,2.06v1.91h7.85v-1.91c0-1.36,1.16-2.06,2.26-2.06s2.26.7,2.26,2.06v1.91h10.36c1.51,0,2.26,1.01,2.26,2.01,0,1.06-.8,2.11-2.26,2.11h-10.36ZM140.87,42.69h-4.02c0,1.51,0,3.07-.05,4.58h4.07v-4.58ZM140.82,39.02c0-1.41,0-2.67-.05-3.72,0-.75-.3-1.26-1.26-1.31h-1.51c-.75.05-1.16.55-1.16,1.31v3.72h3.97ZM147.36,60.95c-1.16,0-1.91-1.06-1.91-2.01,0-.65.35-1.31,1.11-1.56,2.82-.91,3.87-1.56,6.04-3.02.3-.2.6-.3.91-.3.85,0,1.51.8,1.51,1.71,0,.55-.2,1.11-.8,1.56-4.07,3.12-6.09,3.62-6.84,3.62ZM156.06,47.67c0-1.21.91-1.81,1.86-1.81,2.06,0,2.06,1.61,2.06,3.22,0,2.11-.05,5.08-.05,5.78,0,1.06.1,2.97.1,4.27v.1c0,2.11-1.41,4.17-4.98,4.17-3.22,0-3.72-.96-3.72-2.16,0-.96.6-1.91,1.56-1.91.1,0,.2,0,.35.05.4.1.91.15,1.36.15.8,0,1.46-.25,1.51-1.21v-2.46c0-2.72,0-6.59-.05-8.15v-.05ZM160.28,41.84c-.6-1.01-1.11-2.01-1.46-2.92h-1.31c-.4,1.01-.8,1.96-1.26,2.92h4.02ZM167.93,60.95c-1.86-1.51-3.82-2.51-5.93-3.17-.91-.25-1.26-.91-1.26-1.51,0-.85.75-1.76,1.86-1.76,1.21,0,5.53,1.56,7.49,2.87.8.55,1.11,1.26,1.11,1.96,0,1.11-.8,2.16-1.91,2.16-.4,0-.91-.15-1.36-.55ZM225.42,57.07c1.51,0,2.21,1.16,2.21,2.26s-.7,2.31-2.16,2.31c-5.93.15-11.87.2-17.75.2-4.78,0-9.51-.05-14.03-.15-4.38-.1-6.49-2.36-6.64-6.09-.15-3.77-.2-8.05-.2-12.47,0-5.38.1-10.86.2-15.79.05-3.22,2.46-5.43,6.24-5.48,4.38-.1,9.71-.1,15.09-.1s10.91,0,15.59.1c1.51,0,2.21,1.11,2.21,2.21s-.7,2.16-2.21,2.16c-6.49-.05-14.33-.1-20.82-.1-2.92,0-5.58,0-7.75.05-2.87.05-3.62.85-3.67,3.42-.1,4.07-.15,8.25-.15,12.32s.05,8.1.15,11.87c.1,2.87,1.11,3.32,4.17,3.42,3.02.05,6.39.1,9.96.1,6.14,0,12.88-.1,19.51-.25h.05ZM221.85,43.19l-10.16-.15c2.36,3.82,6.39,6.49,10.31,7.85,1.26.45,1.81,1.41,1.81,2.36,0,1.21-.91,2.36-2.41,2.36-2.82,0-9.61-4.63-12.62-10.06-4.43,9.15-13.28,10.31-13.43,10.31-1.36,0-2.16-1.16-2.16-2.26,0-.91.5-1.81,1.81-2.16,5.93-1.51,8.85-4.88,10.21-8.45l-9.51.2h-.05c-1.36,0-2.01-.96-2.01-1.96s.7-2.06,2.06-2.06h10.41l.15-1.51c.05-1.01.05-2.21.05-3.42h-4.98c-2.46,3.67-3.42,3.92-4.27,3.92-1.21,0-2.36-.85-2.36-1.91,0-.4.15-.8.55-1.21,2.26-2.36,3.42-4.27,4.68-7.39.35-.8,1.01-1.11,1.76-1.11,1.21,0,2.46.85,2.46,2.01,0,.1,0,.3-.6,1.71h15.14c1.31,0,1.96,1.01,1.96,1.96,0,1.01-.65,2.01-1.96,2.01h-7.69c0,.6-.05,3.72-.25,4.93h11.12c1.36,0,2.01,1.01,2.01,2.01s-.65,2.01-1.96,2.01h-.05ZM243.79,63.81c-1.26,0-2.46-.75-2.46-2.21,0-9.15.05-25.7.25-36.31.1-4.78,2.77-4.78,7.29-4.78.96,0,1.91,0,2.77.05,2.87.1,4.33,1.66,4.33,3.82,0,.96-.3,2.46-2.97,8.2-.25.5-.35.96-.35,1.41,0,.65.25,1.31.8,2.01,1.76,2.21,2.72,4.38,2.72,7.8,0,4.38-2.77,7.64-6.34,7.64-.85,0-3.47-.2-3.47-2.41,0-1.11.75-2.16,1.81-2.16.2,0,.35.05.55.1.25.05.45.1.7.1,1.11,0,2.36-.96,2.36-3.62,0-2.31-.7-4.12-1.96-5.88-.96-1.36-1.36-2.46-1.36-3.57,0-.91.25-1.81.7-2.87,1.11-2.41,2.01-5.43,2.01-5.78,0-.6-.25-1.01-2.06-1.01s-2.87.05-2.87,1.76c-.05,4.68-.1,10.61-.1,16.85v18.66c0,1.46-1.21,2.21-2.36,2.21ZM251.33,61.2c0-.96.6-1.96,1.91-2.41,6.74-2.41,8.7-6.39,9.51-11.67.2-1.36,1.21-1.96,2.21-1.96,1.26,0,2.56.91,2.56,2.31,0,.1,0,.25-.05.4-2.36,13.58-13.03,15.64-13.68,15.64-1.56,0-2.46-1.11-2.46-2.31ZM278.49,33.44v-2.06c0-1.81-.7-2.16-2.31-2.21-2.01-.05-4.43-.1-6.74-.1s-4.68.05-6.49.1c-1.86.05-2.41.55-2.41,2.06v2.16c0,1.41-1.16,2.11-2.31,2.11s-2.31-.7-2.31-2.11v-2.51c0-2.31.1-5.48,5.13-5.63,1.76-.05,3.67-.1,5.63-.1l-.05-3.57v-.05c0-1.56,1.26-2.36,2.56-2.36s2.56.8,2.56,2.36v.05l-.05,3.57c2.21,0,4.43,0,6.39.1,3.27.15,5.18,1.61,5.18,4.63v3.52c-.1,1.41-1.31,2.16-2.51,2.16s-2.26-.7-2.26-2.06v-.05ZM279.65,53.86c0-1.41,1.06-2.01,2.16-2.01.8,0,2.56.35,2.56,2.41,0,7.14-2.72,8.5-8.15,8.5s-6.59-2.16-6.59-5.78c0-1.71.05-9.41.15-12.72l-11.32.1c-1.36,0-2.06-1.06-2.06-2.11s.7-2.06,2.06-2.06h22.83c1.31,0,1.96,1.06,1.96,2.11s-.65,2.06-1.91,2.06h-.05l-6.84-.1c-.05,3.02-.2,8.9-.2,11.37,0,1.36.2,2.62,2.01,2.62,2.82,0,3.37-.75,3.37-3.82v-.55ZM263.5,36.7c-1.41,0-2.11-1.01-2.11-2.01s.7-2.01,2.11-2.01h12.12c1.31,0,1.96,1.01,1.96,2.01s-.65,2.01-1.96,2.01h-12.12Z"/>
        <path class="cls-2" d="M105.8,7.78h-1.48c-.45,0-.69-.34-.69-.68s.24-.68.69-.68h1.47v-3.39c0-.47.37-.69.74-.69s.76.23.76.69v3.39h1.27c.42,0,.63.34.63.68s-.21.68-.63.68h-1.29v3.63c.34-.16.68-.32.98-.5.15-.08.27-.11.4-.11.39,0,.69.29.69.63,0,.23-.15.47-.47.65-.56.31-4.05,2.06-4.71,2.06-.44,0-.71-.37-.71-.74,0-.29.16-.58.52-.69.61-.21,1.23-.42,1.82-.66v-4.26ZM112.76,7.65l-1.47.74c0,1.95,0,3.92.02,4.77.03.95.95.97,2.36.97,1.97,0,2.9-.06,2.9-1.66,0-.48.34-.71.71-.71.15,0,.82.05.82.82,0,2.92-2.26,2.92-4.34,2.92-1.81,0-3.87-.05-3.9-2.06-.02-1.02-.02-2.63-.02-4.31l-.98.5c-.11.05-.21.08-.31.08-.37,0-.65-.35-.65-.71,0-.23.11-.47.39-.6l1.55-.77c0-1.4.03-2.73.03-3.6,0-.47.37-.71.73-.71s.71.23.71.68v.02c-.02.66-.02,1.71-.02,2.87l1.47-.73v-3.57c0-.44.35-.66.73-.66s.71.23.71.66v2.84l.79-.4c.4-.21.76-.29,1.06-.29,1.16,0,1.21,1.15,1.21,2.02,0,3.69-.35,4.97-2,4.97-.73,0-.95-.26-.95-.77,0-.35.18-.71.52-.71.05,0,.1.02.16.03s.13.03.19.03c.26,0,.66-.23.66-2.95,0-.68-.02-1.1-.27-1.1-.06,0-.11.02-.18.05-.24.13-.68.35-1.19.61v5.29c0,.4-.35.61-.73.61s-.71-.21-.71-.61v-4.57ZM123.29,7h-1.03c-.45,0-.68-.34-.68-.68s.23-.68.68-.68h1.03v-2.68c0-.47.37-.69.74-.69s.76.23.76.69v2.68h.94c.42,0,.63.34.63.68s-.21.68-.63.68h-.94l-.02,3.6c.31-.13.6-.27.87-.42.13-.06.24-.1.35-.1.35,0,.61.31.61.63,0,.24-.13.5-.45.66-1.52.81-3.63,1.69-4.08,1.69s-.73-.37-.73-.74c0-.29.18-.58.53-.68.5-.15.97-.29,1.42-.45l-.02-4.19ZM126.25,13.79c-.42,0-.68-.39-.68-.77,0-.27.15-.55.47-.63,1.63-.4,3-.89,4.24-1.48.1-.05.19-.06.27-.06.32,0,.55.32.55.65,0,.23-.1.45-.34.58-1.95,1.1-4.42,1.73-4.52,1.73ZM132.33,5.76c.05,1.61.15,3.31.37,4.76.45-.85.79-1.82,1.11-2.98.08-.29.32-.42.58-.42.4,0,.87.31.87.74,0,.11-.71,2.52-2.18,4.5.35,1.32.81,1.77.98,1.77.21,0,.39-.35.5-1.29.05-.39.35-.58.66-.58.39,0,.79.27.79.81s-.45,2.61-2.02,2.61c-.69,0-1.37-.34-2-2.06-1.39,1.37-3.37,2.27-3.77,2.27-.44,0-.73-.34-.73-.71,0-.29.18-.58.58-.73,1.44-.53,2.58-1.26,3.5-2.36-.4-1.87-.6-4.16-.69-6.34h-4.31c-.5,0-.74-.35-.74-.69s.24-.69.74-.69l3.97.02h.29c-.02-.66-.03-1.31-.05-1.92v-.02c0-.47.39-.71.77-.71s.76.23.76.73v.02c-.02.58-.02,1.23-.02,1.9l2.52-.02c.5,0,.76.34.76.68s-.26.71-.76.71h-2.5ZM128.47,10.89c-.81,0-1.74-.05-1.79-1.02-.02-.27-.02-.61-.02-.98,0-.48,0-.98.02-1.36.03-.92.81-.98,1.86-.98.97,0,1.73.11,1.76.97.02.52.03,1.08.03,1.61,0,1.23,0,1.76-1.86,1.76ZM129.13,8.79c0-.29,0-.58-.02-.85,0-.21-.11-.27-.61-.27q-.66,0-.66,1.06c0,.26.02.52.02.71.02.15.06.27.61.27q.66,0,.66-.92ZM134.05,3.9c-.34-.44-.74-.65-1.13-.84-.16-.1-.24-.23-.24-.35,0-.32.35-.66.69-.66.4,0,1.73.68,1.73,1.32,0,.39-.34.73-.66.73-.15,0-.27-.05-.39-.19ZM141.51,14.49c-.31-.98-.42-2.03-.42-3.08,0-2.84.82-5.61.9-6.73.05-.55.4-.77.77-.77.4,0,.81.27.81.71,0,.03,0,.08-.02.13-.23,1.18-1.05,4.16-1.05,5.76,0,.6.11.66.16.66.03,0,.08-.03.11-.11.5-.95.61-1.15.95-1.15s.66.32.66.68c0,.1-.02.19-.08.29-.77,1.34-1.21,2.55-1.21,3.03,0,.15.02.29.02.44,0,.79-.63.84-.81.84-.32,0-.66-.21-.81-.69ZM150.48,14.39c-2.79,0-4.92-1.66-4.92-2.45,0-.42.39-.76.84-.76.24,0,.5.1.73.35.68.76,1.82,1.08,3.13,1.08.45,0,.9-.03,1.37-.1.06-.02.13-.02.19-.02.55,0,.81.37.81.77,0,.84-.71,1.11-2.15,1.11ZM148.65,7.31c-.71,0-1.47-.06-2.18-.24-.48-.11-.68-.42-.68-.73,0-.39.31-.76.74-.76.05,0,.1,0,.16.02.53.11,1.06.16,1.56.16.69,0,1.36-.08,1.98-.16.05,0,.1-.02.15-.02.5,0,.77.37.77.76,0,.65-.45.97-2.52.97ZM160.98,15.18c0,.44-.4.66-.79.66s-.79-.21-.79-.66v-.02l.06-6c-.45.82-.97,1.61-1.5,2.26-.19.24-.44.34-.66.34-.4,0-.77-.32-.77-.71,0-.18.08-.37.26-.55.87-.89,2.03-2.55,2.68-4.13v-.06l-1.69.03h-.02c-.45,0-.68-.34-.68-.69s.23-.71.69-.71h1.68l-.05-2.63v-.02c0-.45.4-.69.81-.69s.77.23.77.69v.02s-.03,1.21-.05,2.63h1.15c.47,0,.71.35.71.71s-.24.69-.69.69h-.02l-1.16-.03c0,.42-.02.85-.02,1.23.42,0,1.89.94,1.89,1.55,0,.4-.35.76-.73.76-.16,0-.34-.08-.47-.26-.19-.26-.45-.56-.69-.81.02,2.5.08,6.39.08,6.39v.02ZM164.69,8.95v.65c0,1.03-.02,2.73-.02,3.79.6-.24,1.11-.48,1.55-.73.11-.06.23-.1.34-.1.35,0,.65.31.65.65,0,.23-.13.47-.44.65-1.73.98-4.23,1.86-4.68,1.86s-.73-.37-.73-.74c0-.29.18-.6.56-.69.42-.1.84-.21,1.24-.34,0-8.05,0-9.07.03-10.34.02-.74.53-1.4,1.63-1.45.6-.03,1.19-.03,1.77-.03s1.18,0,1.73.03c.95.05,1.56.68,1.6,1.44.03.85.06,1.84.06,2.77,0,.35,0,.71-.02,1.03-.03.84-.79,1.52-1.74,1.56-.31.02-.6.03-.9.03.11.6.27,1.16.48,1.68.63-.37,1.23-.82,1.82-1.34.13-.11.27-.16.42-.16.39,0,.77.39.77.79s-.37.81-2.48,1.77c.6.98,1.45,1.79,2.68,2.42.34.18.48.45.48.71,0,.42-.34.81-.85.81-1.1,0-3.95-2.47-4.73-6.68-.4,0-.82-.02-1.24-.03ZM168.52,4.87c-.02-.29-.03-.56-.05-.82-.06-.66-.37-.68-1.94-.68-1.45,0-1.84,0-1.84.69,0,.27-.02.53-.02.81h3.84ZM164.69,6.13v1.53c.47.02,1.05.03,1.6.03s1.11-.02,1.52-.03c.71-.03.73-.53.73-1.53h-3.84ZM181.62,5.61c-.73-1.31-.79-1.74-.79-1.82,0-.45.35-.69.74-.69s.79.24.94.77c.1.37.32.85.58,1.37.24-.08.48-.16.73-.26.18-.06.32-.1.47-.1.48,0,.76.37.76.74,0,.61-.44.74-1.23.97,1.4,2.5,2.21,3.98,2.21,5,0,.65-.32.9-.71.9-.27,0-.58-.11-.84-.34-.6-.5-2.58-.87-3.73-.87-1.29,0-1.94.63-1.94,1.08,0,.71,1.39,1.19,2.82,1.19.26,0,.52-.02.77-.03h.15c.63,0,.94.37.94.77,0,.45-.37.92-1.05.92-3.29,0-5.23-1.27-5.23-2.73,0-.79.85-2.56,3.66-2.56,1.11,0,2.16.24,2.98.35.06,0,.11.02.15.02s.05-.02.05-.03c0-.03-.03-.65-1.66-3.34-1.36.24-1.58.26-1.79.26-1.87,0-3.44-1.6-3.44-2.26,0-.4.37-.68.77-.68.26,0,.53.1.76.35.82.94,1.6,1.11,2.08,1.11.11,0,.23,0,.31-.02l.53-.1ZM185.99,5.11c-.16-.27-.84-.97-1.13-1.16-.21-.15-.31-.31-.31-.47,0-.29.31-.56.66-.56.42,0,1.9,1.1,1.9,1.74,0,.4-.35.73-.69.73-.16,0-.32-.08-.44-.27ZM187.86,4.15c-.18-.27-.85-.94-1.16-1.11-.23-.13-.32-.31-.32-.47,0-.29.31-.58.66-.58.52,0,1.94,1.05,1.94,1.71,0,.39-.34.71-.68.71-.16,0-.32-.08-.44-.26ZM199.8,15.15c-3.23,0-3.36-1.87-3.36-3.47,0-1.84.19-4.18.19-6.08,0-.69-.03-1.32-.1-1.84,0-.05-.02-.11-.02-.16,0-.53.42-.81.84-.81s.85.27.9.77c.03.35.05.74.05,1.16,0,1.98-.34,4.52-.34,6.68,0,1.32.06,2.13,1.66,2.13,1.77,0,3.55-.71,3.86-.84.19-.08.35-.11.5-.11.5,0,.79.37.79.77s-.24.81-.79,1.02c-.35.13-2.1.77-4.19.77ZM216.73,6.02c-1.5,4.13-2.68,6.23-3.74,8.47-.15.31-.45.45-.77.45-.42,0-.84-.26-.84-.69,0-.13.03-.29.13-.45.85-1.53,2.19-3.84,3.5-7.29l-.18.05c-.5.15-.97.21-1.37.21-.16,0-1.42,0-1.42-.87,0-.4.26-.82.71-.82.15,0,.31.03.48.13.13.06.26.1.42.1.53,0,1.5-.31,1.89-.45.08-.4.11-.76.11-1.29,0-.5.45-.76.89-.76.37,0,.71.18.76.58.02.08.02.18.02.27s0,.19-.02.31c.06-.02.13-.03.21-.03.44,0,.76.37.76.74,0,.42-.29.71-1.48,1.24l-.05.11ZM221.65,15.1c-2.65,0-4.39-1.4-4.39-2.23,0-.45.37-.86.79-.86.21,0,.44.1.63.35.61.82,1.13.94,3.24,1.08.56.03.82.42.82.81,0,.84-.84.84-1.1.84ZM222.58,9.03c-.76-.29-1.94-.74-2.86-.74-.19,0-.39.02-.55.06-.06.02-.13.03-.18.03-.37,0-.61-.32-.61-.66,0-.26.08-.85,1.52-.85.9,0,2.08.24,3.27.73.37.15.52.44.52.71,0,.4-.32.79-.77.79-.11,0-.23-.02-.34-.06ZM241.18,13.83c.48,0,.71.37.71.73s-.23.74-.69.74c-1.9.05-3.81.06-5.69.06-1.53,0-3.05-.02-4.5-.05-1.4-.03-2.08-.76-2.13-1.95-.05-1.21-.06-2.58-.06-4,0-1.73.03-3.48.06-5.07.02-1.03.79-1.74,2-1.76,1.4-.03,3.11-.03,4.84-.03s3.5,0,5,.03c.48,0,.71.35.71.71s-.23.69-.71.69c-2.08-.02-4.6-.03-6.68-.03-.94,0-1.79,0-2.48.02-.92.02-1.16.27-1.18,1.1-.03,1.31-.05,2.65-.05,3.95s.02,2.6.05,3.81c.03.92.35,1.06,1.34,1.1.97.02,2.05.03,3.19.03,1.97,0,4.13-.03,6.26-.08h.02ZM240.04,9.37l-3.26-.05c.76,1.23,2.05,2.08,3.31,2.52.4.15.58.45.58.76,0,.39-.29.76-.77.76-.9,0-3.08-1.48-4.05-3.23-1.42,2.94-4.26,3.31-4.31,3.31-.44,0-.69-.37-.69-.73,0-.29.16-.58.58-.69,1.9-.48,2.84-1.56,3.27-2.71l-3.05.06h-.02c-.44,0-.65-.31-.65-.63s.23-.66.66-.66h3.34l.05-.48c.02-.32.02-.71.02-1.1h-1.6c-.79,1.18-1.1,1.26-1.37,1.26-.39,0-.76-.27-.76-.61,0-.13.05-.26.18-.39.73-.76,1.1-1.37,1.5-2.37.11-.26.32-.35.56-.35.39,0,.79.27.79.65,0,.03,0,.1-.19.55h4.86c.42,0,.63.32.63.63,0,.32-.21.65-.63.65h-2.47c0,.19-.02,1.19-.08,1.58h3.57c.44,0,.65.32.65.65s-.21.65-.63.65h-.02ZM254.91,12.99c0,.34.03.84.03,1.23-.02.9-.45,1.71-1.94,1.71-.63,0-1.5-.02-1.5-.79,0-.34.19-.66.55-.66.05,0,.08.02.11.02.31.05.58.1.79.1.39,0,.61-.15.61-.61v-1.32c-1.94,0-2.76-.1-2.81-1.44v-1.27c-.32.21-.98.63-1.26.63-.23,0-.4-.11-.52-.26-.23,1.86-.74,3.58-1.77,4.92-.21.27-.47.39-.71.39-.4,0-.76-.31-.76-.68,0-.13.05-.27.15-.4,1-1.31,1.48-2.74,1.71-4.26-.66.44-1.19.63-1.36.63-.44,0-.71-.42-.71-.81,0-.27.13-.53.45-.63.68-.19,1.21-.42,1.74-.73.02-.34.02-.66.02-1v-.42c-.13.23-.37.35-.6.35-.19,0-.39-.1-.5-.34-.23-.45-.52-.85-.76-1.06-.16-.15-.23-.29-.23-.44,0-.32.35-.58.69-.58.55,0,1.23,1,1.37,1.26-.02-.5-.05-1-.08-1.5v-.21c0-1.19.65-1.73,2.03-1.74.82-.02,1.87-.02,2.98-.03v-.58c0-.53.4-.79.82-.79s.82.26.82.79v.56c1.66,0,3.31,0,4.48.03.52.02.74.34.74.65,0,.34-.26.68-.74.68h-.02c-1.13-.02-2.66-.03-4.18-.03.05.08.06.15.06.24,0,.05,0,.1-.02.15l-.19.58,4.08-.03c.44,0,.66.31.66.61,0,.32-.23.63-.65.63h-.02l-2.61-.05c.32.47.68.89,1.1,1.24.37-.26.74-.61.97-.89.11-.13.26-.19.39-.19.35,0,.69.32.69.66,0,.42-.95.98-1.13,1.08.47.31.95.56,1.47.77.27.11.39.34.39.55,0,.35-.29.73-.71.73-.31,0-.68-.19-1.56-.82v.48c0,2.24-.13,2.56-2.61,2.56v.34ZM249.4,15.66c-.42,0-.68-.39-.68-.74,0-.26.13-.52.44-.63.97-.34,1.61-.68,2.39-1.37.11-.1.23-.15.34-.15.32,0,.63.35.63.73,0,.16-.05.32-.19.45-1.06,1.02-2.58,1.71-2.92,1.71ZM250.17,6.52h-.02c-.42,0-.65-.32-.65-.63s.21-.61.66-.61l2.92.02c.08-.26.16-.5.21-.76.02-.08.03-.15.06-.19-1.37,0-2.65.02-3.52.03-.53.02-.77.24-.77.66v.05c.03.81.06,1.63.06,2.47,0,.66-.02,1.31-.06,1.95.05-.05.11-.1.19-.13.58-.26,1.1-.56,1.53-.89-.29-.26-.53-.4-.85-.56-.23-.11-.31-.27-.31-.44,0-.31.32-.63.69-.63s.9.42,1.37.82c.35-.39.66-.79.89-1.21l-2.42.05ZM256.19,9.5c-.02-.53-.31-.53-1.95-.53-1.82,0-2.13,0-2.16.58v.27h4.11v-.32ZM256.19,10.74h-4.11v.37c.05.5.26.5,2.03.5s2.05,0,2.08-.53v-.34ZM253.95,6.45c-.29.53-.61,1.03-1,1.5.37,0,.74-.02,1.13-.02.53,0,1.08.02,1.65.03-.42-.48-.79-1-1.03-1.52h-.74ZM258,15.39c-.56-.58-1.34-1.03-2.03-1.29-.29-.1-.4-.32-.4-.53,0-.34.27-.68.66-.68.29,0,2.92.84,2.92,1.9,0,.42-.32.81-.69.81-.15,0-.31-.06-.45-.21Z"/>
        <path class="cls-3" d="M41.94,26.49c3.25-2.35,19.51.09,19.51,8.22,0,9.21-15.96,10.57-18.31,9.13"/>
        <path class="cls-3" d="M22.15,27.58c-3.25-2.35-19.51.09-19.51,8.22,0,9.21,17.36,9.98,19.71,8.53"/>
        <path class="cls-4" d="M22.83,41.66c-1.08,6.74,1.35,25.05,10.75,24.33,9.39-.72,10.36-20.1,8.19-31.01,0-.07-18.43,0-18.43,0,0,0-4.7-31.86,7.59-32.34s12.09,23.07,10.65,26.2"/>
        <line class="cls-3" x1="12.49" y1="19.08" x2="12.49" y2="52.55"/>
        <circle class="cls-5" cx="53.87" cy="11.16" r="4.22"/>
        <circle class="cls-5" cx="12.92" cy="62.36" r="4.22"/>
      </g>
    </g>
  </g>
</svg>